OverflowText.glyphspackage
{
color = 6;
glyphname = dollar;
layers = (
{
background = {
shapes = (
{
closed = 1;
nodes = (
(47,227,l),
(52,91,o),
(172,-12,o),
(335,-12,cs),
(509,-12,o),
(613,62,o),
(613,193,cs),
(613,479,o),
(206,370,o),
(206,510,cs),
(206,552,o),
(248,584,o),
(326,584,cs),
(405,584,o),
(444,544,o),
(450,478,c),
(602,478,l),
(602,619,o),
(481,716,o),
(331,716,cs),
(161,716,o),
(55,622,o),
(55,510,cs),
(55,221,o),
(462,321,o),
(462,193,cs),
(462,142,o),
(409,120,o),
(341,120,cs),
(265,120,o),
(207,161,o),
(200,227,c)
);
}
);
};
layerId = "70D15AE9-D38C-43AF-B37D-5B18830B62EE";
shapes = (
{
closed = 1;
nodes = (
(516,-2,o),
(613,69,o),
(613,204,cs),
(613,471,o),
(210,368,o),
(210,500,cs),
(210,539,o),
(244,569,o),
(328,569,cs),
(406,569,o),
(446,536,o),
(452,469,c),
(599,469,l),
(599,605,o),
(487,702,o),
(333,702,cs),
(158,702,o),
(59,608,o),
(59,498,cs),
(59,221,o),
(462,316,o),
(462,195,cs),
(462,147,o),
(418,127,o),
(342,127,cs),
(257,127,o),
(204,165,o),
(197,228,c),
(50,228,l),
(55,99,o),
(164,-2,o),
(337,-2,cs)
);
},
{
closed = 1;
nodes = (
(387,-61,l),
(387,750,l),
(277,750,l),
(277,-61,l)
);
}
);
width = 663;
},
{
layerId = "B0101270-E9E4-4119-BDB6-6DA172BA76B6";
shapes = (
{
closed = 1;
nodes = (
(512,4,o),
(604,74,o),
(604,194,cs),
(604,446,o),
(137,319,o),
(137,510,cs),
(137,575,o),
(184,621,o),
(325,621,cs),
(468,621,o),
(506,568,o),
(511,468,c),
(592,468,l),
(592,601,o),
(492,693,o),
(329,693,cs),
(136,693,o),
(59,604,o),
(59,500,cs),
(59,244,o),
(526,365,o),
(526,189,cs),
(526,122,o),
(475,76,o),
(337,76,cs),
(200,76,o),
(142,133,o),
(136,230,c),
(55,230,l),
(59,101,o),
(158,4,o),
(332,4,cs)
);
},
{
closed = 1;
nodes = (
(369,-61,l),
(369,750,l),
(299,750,l),
(299,-61,l)
);
}
);
width = 659;
},
{
associatedMasterId = "70D15AE9-D38C-43AF-B37D-5B18830B62EE";
layerId = "B43A59C4-EEB4-460D-924A-5F3E794942C1";
name = "2 Sep 25 at 14:19";
shapes = (
{
closed = 1;
nodes = (
(50,227,l),
(55,91,o),
(175,-12,o),
(338,-12,cs),
(512,-12,o),
(616,62,o),
(616,193,cs),
(616,479,o),
(209,370,o),
(209,510,cs),
(209,552,o),
(251,584,o),
(329,584,cs),
(408,584,o),
(447,544,o),
(453,478,c),
(605,478,l),
(605,619,o),
(484,716,o),
(334,716,cs),
(164,716,o),
(58,622,o),
(58,510,cs),
(58,221,o),
(465,321,o),
(465,193,cs),
(465,142,o),
(412,120,o),
(344,120,cs),
(268,120,o),
(210,161,o),
(203,227,c)
);
},
{
closed = 1;
nodes = (
(286,-50,l),
(379,-50,l),
(379,750,l),
(286,750,l)
);
}
);
width = 666;
},
{
associatedMasterId = "70D15AE9-D38C-43AF-B37D-5B18830B62EE";
background = {
shapes = (
{
closed = 1;
nodes = (
(28,227,l),
(33,91,o),
(153,-12,o),
(316,-12,cs),
(490,-12,o),
(594,62,o),
(594,193,cs),
(594,479,o),
(187,370,o),
(187,510,cs),
(187,552,o),
(229,584,o),
(307,584,cs),
(386,584,o),
(425,544,o),
(431,478,c),
(583,478,l),
(583,619,o),
(462,716,o),
(312,716,cs),
(142,716,o),
(36,622,o),
(36,510,cs),
(36,221,o),
(443,321,o),
(443,193,cs),
(443,142,o),
(390,120,o),
(322,120,cs),
(246,120,o),
(188,161,o),
(181,227,c)
);
}
);
};
layerId = "C95BD191-3F29-4776-A721-C293452E675C";
name = "2 Sep 25 at 17:15";
shapes = (
{
closed = 1;
nodes = (
(50,228,l),
(55,99,o),
(164,-2,o),
(318,-2,cs),
(479,-2,o),
(576,69,o),
(576,204,cs),
(576,471,o),
(208,368,o),
(208,500,cs),
(208,539,o),
(242,569,o),
(309,569,cs),
(373,569,o),
(413,536,o),
(419,469,c),
(566,469,l),
(566,605,o),
(454,699,o),
(314,699,cs),
(156,699,o),
(57,608,o),
(57,498,cs),
(57,221,o),
(425,316,o),
(425,195,cs),
(425,147,o),
(381,127,o),
(323,127,cs),
(257,127,o),
(204,165,o),
(197,228,c)
);
},
{
closed = 1;
nodes = (
(258,-61,l),
(368,-61,l),
(368,750,l),
(258,750,l)
);
}
);
width = 626;
},
{
associatedMasterId = "70D15AE9-D38C-43AF-B37D-5B18830B62EE";
background = {
shapes = (
{
closed = 1;
nodes = (
(28,227,l),
(33,91,o),
(153,-12,o),
(316,-12,cs),
(490,-12,o),
(594,62,o),
(594,193,cs),
(594,479,o),
(187,370,o),
(187,510,cs),
(187,552,o),
(229,584,o),
(307,584,cs),
(386,584,o),
(425,544,o),
(431,478,c),
(583,478,l),
(583,619,o),
(462,716,o),
(312,716,cs),
(142,716,o),
(36,622,o),
(36,510,cs),
(36,221,o),
(443,321,o),
(443,193,cs),
(443,142,o),
(390,120,o),
(322,120,cs),
(246,120,o),
(188,161,o),
(181,227,c)
);
}
);
};
layerId = "2883B930-B5B7-414D-A549-EDDB3CA59871";
name = "2 Sep 25 at 17:27";
shapes = (
{
closed = 1;
nodes = (
(31,228,l),
(36,99,o),
(145,-2,o),
(318,-2,cs),
(497,-2,o),
(594,69,o),
(594,204,cs),
(594,471,o),
(191,368,o),
(191,500,cs),
(191,539,o),
(225,569,o),
(309,569,cs),
(387,569,o),
(427,536,o),
(433,469,c),
(580,469,l),
(580,605,o),
(468,702,o),
(314,702,cs),
(139,702,o),
(40,608,o),
(40,498,cs),
(40,221,o),
(443,316,o),
(443,195,cs),
(443,147,o),
(399,127,o),
(323,127,cs),
(238,127,o),
(185,165,o),
(178,228,c)
);
},
{
closed = 1;
nodes = (
(258,-61,l),
(368,-61,l),
(368,750,l),
(258,750,l)
);
}
);
width = 644;
},
{
associatedMasterId = "B0101270-E9E4-4119-BDB6-6DA172BA76B6";
layerId = "206B0652-AFA2-4161-B74A-EFBD0B41DF43";
name = "2 Sep 25 at 17:32";
shapes = (
{
closed = 1;
nodes = (
(55,230,l),
(59,101,o),
(158,4,o),
(292,4,cs),
(435,4,o),
(521,74,o),
(521,198,cs),
(521,449,o),
(140,319,o),
(140,504,cs),
(140,575,o),
(182,621,o),
(285,621,cs),
(388,621,o),
(427,568,o),
(432,468,c),
(512,468,l),
(512,601,o),
(412,693,o),
(289,693,cs),
(149,693,o),
(62,604,o),
(62,500,cs),
(62,244,o),
(443,365,o),
(443,198,cs),
(443,122,o),
(392,76,o),
(297,76,cs),
(200,76,o),
(141,133,o),
(135,230,c)
);
},
{
closed = 1;
nodes = (
(251,-61,l),
(321,-61,l),
(321,750,l),
(251,750,l)
);
}
);
width = 576;
}
);
metricRight = "=S";
unicode = 36;
}
{
color = 6;
glyphname = ampersand;
kernLeft = KO_ampersand;
kernRight = KO_ampersand;
layers = (
{
layerId = "70D15AE9-D38C-43AF-B37D-5B18830B62EE";
shapes = (
{
closed = 1;
nodes = (
(368,0,l),
(368,126,l),
(315,126,l),
(237,126,o),
(202,152,o),
(202,200,cs),
(202,265,o),
(249,292,o),
(385,292,c),
(385,418,l),
(249,418,o),
(207,445,o),
(207,510,cs),
(207,551,o),
(239,584,o),
(314,584,cs),
(392,584,o),
(428,551,o),
(428,478,c),
(573,478,l),
(573,620,o),
(471,716,o),
(319,716,cs),
(159,716,o),
(56,622,o),
(56,510,cs),
(56,421,o),
(109,345,o),
(245,336,c),
(244,367,l),
(104,359,o),
(51,279,o),
(51,190,cs),
(51,78,o),
(150,0,o),
(320,0,c)
);
},
{
closed = 1;
nodes = (
(573,0,l),
(573,478,l),
(428,478,l),
(428,0,l)
);
},
{
closed = 1;
nodes = (
(667,292,l),
(667,418,l),
(385,418,l),
(385,292,l)
);
}
);
width = 702;
},
{
layerId = "B0101270-E9E4-4119-BDB6-6DA172BA76B6";
shapes = (
{
closed = 1;
nodes = (
(412,0,l),
(412,66,l),
(314,66,l),
(196,66,o),
(126,122,o),
(126,200,cs),
(126,295,o),
(213,322,o),
(379,322,c),
(379,388,l),
(213,388,o),
(131,415,o),
(131,510,cs),
(131,581,o),
(193,644,o),
(308,644,cs),
(427,644,o),
(482,580,o),
(482,478,c),
(557,478,l),
(557,619,o),
(463,716,o),
(313,716,cs),
(153,716,o),
(50,622,o),
(50,510,cs),
(50,421,o),
(123,345,o),
(259,336,c),
(258,367,l),
(118,359,o),
(45,279,o),
(45,190,cs),
(45,78,o),
(144,0,o),
(314,0,c)
);
},
{
closed = 1;
nodes = (
(557,0,l),
(557,478,l),
(482,478,l),
(482,0,l)
);
},
{
closed = 1;
nodes = (
(641,322,l),
(641,388,l),
(379,388,l),
(379,322,l)
);
}
);
width = 681;
}
);
metricRight = "=ampersand.ss01";
unicode = 38;
}
{
color = 6;
glyphname = parenleft;
kernLeft = KO_parenleft;
kernRight = KO_parenleft;
layers = (
{
layerId = "70D15AE9-D38C-43AF-B37D-5B18830B62EE";
shapes = (
{
closed = 1;
nodes = (
(97,588,o),
(43,460,o),
(43,272,cs),
(43,84,o),
(97,-44,o),
(167,-172,c),
(259,-172,l),
(199,-24,o),
(169,104,o),
(169,272,c),
(169,440,o),
(199,568,o),
(259,716,c),
(167,716,l)
);
}
);
width = 294;
},
{
layerId = "B0101270-E9E4-4119-BDB6-6DA172BA76B6";
shapes = (
{
closed = 1;
nodes = (
(102,588,o),
(48,460,o),
(48,272,cs),
(48,84,o),
(102,-44,o),
(172,-172,c),
(233,-172,l),
(161,-24,o),
(122,104,o),
(122,272,c),
(122,440,o),
(161,568,o),
(233,716,c),
(172,716,l)
);
}
);
width = 273;
},
{
associatedMasterId = "B0101270-E9E4-4119-BDB6-6DA172BA76B6";
layerId = "373DB249-2CA0-4252-95F0-6A3E11E2CA91";
name = "2 Sep 25 at 13:54";
shapes = (
{
closed = 1;
nodes = (
(102,588,o),
(48,460,o),
(48,272,cs),
(48,84,o),
(102,-44,o),
(172,-172,c),
(228,-172,l),
(154,-24,o),
(114,104,o),
(114,272,c),
(114,440,o),
(154,568,o),
(228,716,c),
(172,716,l)
);
}
);
width = 268;
},
{
associatedMasterId = "70D15AE9-D38C-43AF-B37D-5B18830B62EE";
layerId = "767C9CE7-6F65-4347-9916-B0ADE2294278";
name = "2 Sep 25 at 13:54";
shapes = (
{
closed = 1;
nodes = (
(97,588,o),
(43,460,o),
(43,272,cs),
(43,84,o),
(97,-44,o),
(167,-172,c),
(259,-172,l),
(199,-24,o),
(169,104,o),
(169,272,c),
(169,440,o),
(199,568,o),
(259,716,c),
(167,716,l)
);
}
);
width = 294;
}
);
unicode = 40;
}
{
color = 6;
glyphname = asterisk;
kernLeft = KO_asterisk;
kernRight = KO_asterisk;
layers = (
{
layerId = "70D15AE9-D38C-43AF-B37D-5B18830B62EE";
shapes = (
{
closed = 1;
nodes = (
(348,496,l),
(247,617,l),
(214,593,l),
(181,569,l),
(265,436,l)
);
},
{
closed = 1;
nodes = (
(247,569,l),
(214,593,l),
(181,617,l),
(80,496,l),
(163,436,l)
);
},
{
closed = 1;
nodes = (
(214,593,l),
(226,632,l),
(80,690,l),
(49,593,l),
(201,554,l)
);
},
{
closed = 1;
nodes = (
(214,593,l),
(255,593,l),
(265,750,l),
(163,750,l),
(173,593,l)
);
},
{
closed = 1;
nodes = (
(379,593,l),
(348,690,l),
(202,632,l),
(214,593,l),
(227,554,l)
);
}
);
width = 428;
},
{
layerId = "B0101270-E9E4-4119-BDB6-6DA172BA76B6";
shapes = (
{
closed = 1;
nodes = (
(325,484,l),
(224,605,l),
(207,593,l),
(190,580,l),
(274,447,l)
);
},
{
closed = 1;
nodes = (
(224,580,l),
(207,593,l),
(190,605,l),
(89,484,l),
(140,447,l)
);
},
{
closed = 1;
nodes = (
(207,593,l),
(213,613,l),
(67,671,l),
(48,612,l),
(200,573,l)
);
},
{
closed = 1;
nodes = (
(207,593,l),
(228,593,l),
(238,750,l),
(176,750,l),
(186,593,l)
);
},
{
closed = 1;
nodes = (
(366,612,l),
(347,671,l),
(201,613,l),
(207,593,l),
(214,573,l)
);
}
);
width = 414;
}
);
unicode = 42;
}
{
color = 6;
glyphname = plus;
kernLeft = KO_plus;
kernRight = KO_plus;
layers = (
{
layerId = "70D15AE9-D38C-43AF-B37D-5B18830B62EE";
shapes = (
{
closed = 1;
nodes = (
(56,309,l),
(546,309,l),
(546,431,l),
(56,431,l)
);
},
{
closed = 1;
nodes = (
(240,615,l),
(240,125,l),
(362,125,l),
(362,615,l)
);
}
);
width = 601;
},
{
layerId = "B0101270-E9E4-4119-BDB6-6DA172BA76B6";
shapes = (
{
closed = 1;
nodes = (
(61,337,l),
(551,337,l),
(551,403,l),
(61,403,l)
);
},
{
closed = 1;
nodes = (
(273,615,l),
(273,125,l),
(338,125,l),
(338,615,l)
);
}
);
width = 611;
}
);
metricRight = "=hyphen";
unicode = 43;
}
{
color = 6;
glyphname = one;
layers = (
{
layerId = "70D15AE9-D38C-43AF-B37D-5B18830B62EE";
shapes = (
{
closed = 1;
nodes = (
(203,0,l),
(348,0,l),
(348,700,l),
(203,700,l)
);
},
{
closed = 1;
nodes = (
(35,574,l),
(230,574,l),
(230,700,l),
(35,700,l)
);
},
{
closed = 1;
nodes = (
(35,0,l),
(230,0,l),
(230,126,l),
(35,126,l)
);
},
{
closed = 1;
nodes = (
(321,0,l),
(516,0,l),
(516,126,l),
(321,126,l)
);
}
);
width = 551;
},
{
layerId = "B0101270-E9E4-4119-BDB6-6DA172BA76B6";
shapes = (
{
closed = 1;
nodes = (
(208,0,l),
(283,0,l),
(283,700,l),
(208,700,l)
);
},
{
closed = 1;
nodes = (
(40,634,l),
(235,634,l),
(235,700,l),
(40,700,l)
);
},
{
closed = 1;
nodes = (
(40,0,l),
(235,0,l),
(235,66,l),
(40,66,l)
);
},
{
closed = 1;
nodes = (
(256,0,l),
(451,0,l),
(451,66,l),
(256,66,l)
);
}
);
width = 491;
}
);
unicode = 49;
userData = {
KernOnSpecialSpacing = {
L = NoKerning;
R = NoKerning;
};
};
}
{
color = 6;
glyphname = two;
layers = (
{
layerId = "70D15AE9-D38C-43AF-B37D-5B18830B62EE";
shapes = (
{
closed = 1;
nodes = (
(208,0,l),
(208,299,o),
(572,233,o),
(572,481,cs),
(572,613,o),
(476,716,o),
(306,716,cs),
(156,716,o),
(41,619,o),
(41,478,c),
(193,478,l),
(199,544,o),
(232,584,o),
(311,584,cs),
(381,584,o),
(421,548,o),
(421,481,cs),
(421,329,o),
(40,350,o),
(35,0,c)
);
},
{
closed = 1;
nodes = (
(35,0,l),
(574,0,l),
(574,126,l),
(118,126,l)
);
}
);
width = 629;
},
{
layerId = "B0101270-E9E4-4119-BDB6-6DA172BA76B6";
shapes = (
{
closed = 1;
nodes = (
(133,0,l),
(133,309,o),
(564,233,o),
(564,508,cs),
(564,613,o),
(483,716,o),
(313,716,cs),
(163,716,o),
(53,619,o),
(53,478,c),
(130,478,l),
(136,574,o),
(193,644,o),
(318,644,cs),
(419,644,o),
(486,588,o),
(486,504,cs),
(486,297,o),
(50,350,o),
(45,0,c)
);
},
{
closed = 1;
nodes = (
(45,0,l),
(566,0,l),
(566,68,l),
(128,68,l)
);
}
);
width = 611;
},
{
associatedMasterId = "B0101270-E9E4-4119-BDB6-6DA172BA76B6";
layerId = "2976CFA4-B8FA-4325-AEAB-4C6FC385E020";
name = "2 Sep 25 at 11:57";
shapes = (
{
closed = 1;
nodes = (
(133,0,l),
(133,239,o),
(572,233,o),
(572,481,cs),
(572,613,o),
(486,716,o),
(316,716,cs),
(166,716,o),
(61,619,o),
(61,478,c),
(138,478,l),
(144,574,o),
(196,644,o),
(321,644,cs),
(422,644,o),
(494,588,o),
(494,481,cs),
(494,292,o),
(50,280,o),
(45,0,c)
);
},
{
closed = 1;
nodes = (
(45,0,l),
(574,0,l),
(574,68,l),
(128,68,l)
);
}
);
width = 619;
}
);
unicode = 50;
userData = {
KernOnSpecialSpacing = {
L = NoKerning;
R = NoKerning;
};
};
}
{
color = 6;
glyphname = five;
layers = (
{
layerId = "70D15AE9-D38C-43AF-B37D-5B18830B62EE";
shapes = (
{
closed = 1;
nodes = (
(197,470,o),
(121,344,o),
(106,287,c),
(192,287,l),
(218,317,o),
(270,340,o),
(329,340,cs),
(406,340,o),
(441,295,o),
(441,230,cs),
(441,172,o),
(406,116,o),
(328,116,cs),
(249,116,o),
(203,156,o),
(197,222,c),
(45,222,l),
(45,81,o),
(173,-16,o),
(323,-16,cs),
(493,-16,o),
(592,90,o),
(592,227,cs),
(592,371,o),
(506,470,o),
(329,470,c)
);
},
{
closed = 1;
nodes = (
(187,287,l),
(265,700,l),
(120,700,l),
(45,287,l)
);
},
{
closed = 1;
nodes = (
(158,574,l),
(535,574,l),
(535,700,l),
(158,700,l)
);
}
);
width = 627;
},
{
layerId = "B0101270-E9E4-4119-BDB6-6DA172BA76B6";
shapes = (
{
closed = 1;
nodes = (
(177,470,o),
(106,344,o),
(91,287,c),
(137,287,l),
(161,357,o),
(225,400,o),
(314,400,cs),
(431,400,o),
(499,335,o),
(499,230,cs),
(499,132,o),
(436,56,o),
(318,56,cs),
(189,56,o),
(129,136,o),
(123,222,c),
(50,222,l),
(50,81,o),
(171,-16,o),
(313,-16,cs),
(483,-16,o),
(577,90,o),
(577,227,cs),
(577,364,o),
(490,470,o),
(328,470,cs)
);
},
{
closed = 1;
nodes = (
(131,287,l),
(209,700,l),
(135,700,l),
(60,287,l)
);
},
{
closed = 1;
nodes = (
(143,634,l),
(510,634,l),
(510,700,l),
(143,700,l)
);
}
);
width = 617;
}
);
unicode = 53;
userData = {
KernOnSpecialSpacing = {
L = NoKerning;
R = NoKerning;
};
};
}
{
color = 6;
glyphname = six;
layers = (
{
layerId = "70D15AE9-D38C-43AF-B37D-5B18830B62EE";
shapes = (
{
closed = 1;
nodes = (
(573,502,l),
(549,630,o),
(466,716,o),
(325,716,cs),
(142,716,o),
(43,577,o),
(43,331,cs),
(43,67,o),
(171,-16,o),
(321,-16,cs),
(491,-16,o),
(590,90,o),
(590,227,cs),
(590,364,o),
(491,470,o),
(327,470,cs),
(243,470,o),
(176,434,o),
(145,380,c),
(183,373,l),
(187,528,o),
(256,584,o),
(320,584,cs),
(389,584,o),
(409,549,o),
(418,502,c)
);
},
{
closed = 1;
nodes = (
(205,300,o),
(251,340,o),
(322,340,cs),
(393,340,o),
(439,300,o),
(439,230,cs),
(439,164,o),
(393,116,o),
(321,116,cs),
(251,116,o),
(205,164,o),
(205,232,cs)
);
}
);
width = 633;
},
{
layerId = "B0101270-E9E4-4119-BDB6-6DA172BA76B6";
shapes = (
{
closed = 1;
nodes = (
(578,502,l),
(554,630,o),
(471,716,o),
(330,716,cs),
(147,716,o),
(48,577,o),
(48,331,cs),
(48,67,o),
(176,-16,o),
(326,-16,cs),
(496,-16,o),
(595,90,o),
(595,227,cs),
(595,364,o),
(496,470,o),
(332,470,cs),
(212,470,o),
(122,390,o),
(98,320,c),
(124,322,l),
(124,549,o),
(202,644,o),
(325,644,cs),
(447,644,o),
(484,549,o),
(493,502,c)
);
},
{
closed = 1;
nodes = (
(140,328,o),
(204,400,o),
(328,400,cs),
(452,400,o),
(517,328,o),
(517,230,cs),
(517,132,o),
(452,56,o),
(327,56,cs),
(204,56,o),
(140,132,o),
(140,232,cs)
);
}
);
width = 643;
}
);
metricRight = "=O";
unicode = 54;
userData = {
KernOnSpecialSpacing = {
L = NoKerning;
R = NoKerning;
};
};
}
{
color = 6;
glyphname = nine;
layers = (
{
layerId = "70D15AE9-D38C-43AF-B37D-5B18830B62EE";
shapes = (
{
closed = 1;
nodes = (
(60,198,l),
(84,70,o),
(167,-16,o),
(308,-16,cs),
(491,-16,o),
(590,123,o),
(590,369,cs),
(590,633,o),
(462,716,o),
(312,716,cs),
(142,716,o),
(43,610,o),
(43,473,cs),
(43,336,o),
(142,230,o),
(306,230,cs),
(390,230,o),
(457,266,o),
(488,320,c),
(450,327,l),
(446,172,o),
(377,116,o),
(313,116,cs),
(244,116,o),
(224,151,o),
(215,198,c)
);
},
{
closed = 1;
nodes = (
(428,400,o),
(382,360,o),
(311,360,cs),
(240,360,o),
(194,400,o),
(194,470,cs),
(194,536,o),
(240,584,o),
(312,584,cs),
(382,584,o),
(428,536,o),
(428,468,cs)
);
}
);
width = 633;
},
{
layerId = "B0101270-E9E4-4119-BDB6-6DA172BA76B6";
shapes = (
{
closed = 1;
nodes = (
(65,198,l),
(89,70,o),
(172,-16,o),
(313,-16,cs),
(496,-16,o),
(595,123,o),
(595,369,cs),
(595,633,o),
(467,716,o),
(317,716,cs),
(147,716,o),
(48,610,o),
(48,473,cs),
(48,336,o),
(147,230,o),
(311,230,cs),
(431,230,o),
(521,310,o),
(545,380,c),
(519,378,l),
(519,151,o),
(441,56,o),
(318,56,cs),
(196,56,o),
(159,151,o),
(150,198,c)
);
},
{
closed = 1;
nodes = (
(503,372,o),
(439,300,o),
(315,300,cs),
(191,300,o),
(126,372,o),
(126,470,cs),
(126,568,o),
(191,644,o),
(316,644,cs),
(439,644,o),
(503,568,o),
(503,468,cs)
);
}
);
width = 643;
}
);
metricRight = "=O";
unicode = 57;
userData = {
KernOnSpecialSpacing = {
L = NoKerning;
R = NoKerning;
};
};
}
{
color = 6;
glyphname = colon;
kernLeft = KO_colon;
kernRight = KO_colon;
layers = (
{
layerId = "70D15AE9-D38C-43AF-B37D-5B18830B62EE";
shapes = (
{
closed = 1;
nodes = (
(50,0,l),
(203,0,l),
(203,153,l),
(50,153,l)
);
},
{
closed = 1;
nodes = (
(50,407,l),
(203,407,l),
(203,560,l),
(50,560,l)
);
}
);
width = 253;
},
{
layerId = "B0101270-E9E4-4119-BDB6-6DA172BA76B6";
shapes = (
{
closed = 1;
nodes = (
(55,0,l),
(144,0,l),
(144,93,l),
(55,93,l)
);
},
{
closed = 1;
nodes = (
(55,467,l),
(144,467,l),
(144,560,l),
(55,560,l)
);
}
);
width = 199;
}
);
unicode = 58;
}
{
color = 6;
glyphname = equal;
kernLeft = KO_equal;
kernRight = KO_equal;
layers = (
{
layerId = "70D15AE9-D38C-43AF-B37D-5B18830B62EE";
shapes = (
{
closed = 1;
nodes = (
(56,419,l),
(546,419,l),
(546,541,l),
(56,541,l)
);
},
{
closed = 1;
nodes = (
(56,199,l),
(546,199,l),
(546,321,l),
(56,321,l)
);
}
);
width = 601;
},
{
layerId = "B0101270-E9E4-4119-BDB6-6DA172BA76B6";
shapes = (
{
closed = 1;
nodes = (
(61,439,l),
(551,439,l),
(551,501,l),
(61,501,l)
);
},
{
closed = 1;
nodes = (
(61,239,l),
(551,239,l),
(551,301,l),
(61,301,l)
);
}
);
width = 611;
}
);
metricRight = "=hyphen";
unicode = 61;
}
{
color = 6;
glyphname = question;
kernLeft = KO_question;
kernRight = KO_question;
layers = (
{
layerId = "70D15AE9-D38C-43AF-B37D-5B18830B62EE";
shapes = (
{
closed = 1;
nodes = (
(340,220,l),
(340,310,o),
(526,346,o),
(526,501,cs),
(526,633,o),
(438,716,o),
(280,716,cs),
(153,716,o),
(35,619,o),
(35,478,c),
(187,478,l),
(193,544,o),
(223,584,o),
(285,584,cs),
(351,584,o),
(375,548,o),
(375,501,cs),
(375,399,o),
(197,393,o),
(197,220,c)
);
},
{
closed = 1;
nodes = (
(345,0,l),
(345,153,l),
(192,153,l),
(192,0,l)
);
}
);
width = 561;
},
{
layerId = "B0101270-E9E4-4119-BDB6-6DA172BA76B6";
shapes = (
{
closed = 1;
nodes = (
(292,190,l),
(292,346,o),
(501,329,o),
(501,511,cs),
(501,619,o),
(425,716,o),
(275,716,cs),
(145,716,o),
(40,619,o),
(40,478,c),
(117,478,l),
(123,574,o),
(175,644,o),
(280,644,cs),
(361,644,o),
(423,595,o),
(423,511,cs),
(423,378,o),
(214,388,o),
(214,190,c)
);
},
{
closed = 1;
nodes = (
(298,0,l),
(298,93,l),
(209,93,l),
(209,0,l)
);
}
);
width = 541;
}
);
unicode = 63;
}
{
color = 6;
glyphname = A;
kernLeft = KO_A;
kernRight = KO_A;
layers = (
{
anchors = (
{
name = bottom;
pos = (349,0);
},
{
name = ogonek;
pos = (662,0);
},
{
name = top;
pos = (349,700);
}
);
layerId = "70D15AE9-D38C-43AF-B37D-5B18830B62EE";
shapes = (
{
closed = 1;
nodes = (
(35,0,l),
(183,0,l),
(384,700,l),
(246,700,l)
);
},
{
closed = 1;
nodes = (
(313,700,l),
(514,0,l),
(662,0,l),
(451,700,l)
);
},
{
closed = 1;
nodes = (
(160,147,l),
(537,147,l),
(537,273,l),
(160,273,l)
);
}
);
width = 697;
},
{
anchors = (
{
name = bottom;
pos = (334,0);
},
{
name = ogonek;
pos = (627,0);
},
{
name = top;
pos = (329,700);
}
);
layerId = "B0101270-E9E4-4119-BDB6-6DA172BA76B6";
shapes = (
{
closed = 1;
nodes = (
(40,0,l),
(122,0,l),
(353,700,l),
(281,700,l)
);
},
{
closed = 1;
nodes = (
(304,700,l),
(545,0,l),
(627,0,l),
(376,700,l)
);
},
{
closed = 1;
nodes = (
(135,177,l),
(512,177,l),
(512,243,l),
(135,243,l)
);
}
);
width = 667;
}
);
unicode = 65;
userData = {
KernOnName = A;
};
}
{
color = 6;
glyphname = D;
kernLeft = KO_H;
kernRight = KO_O;
layers = (
{
anchors = (
{
name = bottom;
pos = (364,0);
},
{
name = center;
pos = (194,350);
},
{
name = top;
pos = (304,700);
}
);
layerId = "70D15AE9-D38C-43AF-B37D-5B18830B62EE";
shapes = (
{
closed = 1;
nodes = (
(329,0,l),
(551,0,o),
(674,148,o),
(674,351,cs),
(674,552,o),
(551,700,o),
(329,700,c),
(67,700,l),
(67,0,l)
);
},
{
closed = 1;
nodes = (
(212,574,l),
(329,574,ls),
(465,574,o),
(523,469,o),
(523,351,cs),
(523,231,o),
(465,126,o),
(329,126,cs),
(212,126,l)
);
}
);
width = 717;
},
{
anchors = (
{
name = bottom;
pos = (344,0);
},
{
name = center;
pos = (187,350);
},
{
name = top;
pos = (344,700);
}
);
layerId = "B0101270-E9E4-4119-BDB6-6DA172BA76B6";
shapes = (
{
closed = 1;
nodes = (
(284,0,ls),
(506,0,o),
(629,148,o),
(629,351,cs),
(629,552,o),
(506,700,o),
(284,700,cs),
(72,700,l),
(72,0,l)
);
},
{
closed = 1;
nodes = (
(147,632,l),
(284,632,ls),
(465,632,o),
(551,509,o),
(551,351,cs),
(551,191,o),
(465,68,o),
(284,68,cs),
(147,68,l)
);
}
);
width = 677;
}
);
metricLeft = "=H";
metricRight = "=O";
unicode = 68;
userData = {
KernOnName = D;
};
}
{
color = 6;
glyphname = G;
kernLeft = KO_O;
kernRight = KO_G;
layers = (
{
anchors = (
{
name = bottom;
pos = (389,0);
},
{
name = top;
pos = (389,700);
}
);
layerId = "70D15AE9-D38C-43AF-B37D-5B18830B62EE";
shapes = (
{
closed = 1;
nodes = (
(559,286,l),
(564,181,o),
(503,116,o),
(389,116,cs),
(252,116,o),
(194,231,o),
(194,351,cs),
(194,469,o),
(252,584,o),
(389,584,cs),
(489,584,o),
(537,531,o),
(551,441,c),
(705,441,l),
(684,609,o),
(577,716,o),
(389,716,cs),
(166,716,o),
(43,552,o),
(43,351,cs),
(43,148,o),
(166,-16,o),
(389,-16,cs),
(608,-16,o),
(727,129,o),
(708,388,c)
);
},
{
closed = 1;
nodes = (
(389,262,l),
(663,262,l),
(708,388,l),
(389,388,l)
);
}
);
width = 753;
},
{
anchors = (
{
name = bottom;
pos = (381,0);
},
{
name = top;
pos = (381,700);
}
);
layerId = "B0101270-E9E4-4119-BDB6-6DA172BA76B6";
shapes = (
{
closed = 1;
nodes = (
(637,299,l),
(637,179,o),
(575,56,o),
(394,56,cs),
(217,56,o),
(126,191,o),
(126,351,cs),
(126,509,o),
(217,644,o),
(394,644,cs),
(564,644,o),
(617,531,o),
(631,441,c),
(710,441,l),
(689,609,o),
(582,716,o),
(394,716,cs),
(171,716,o),
(48,552,o),
(48,351,cs),
(48,148,o),
(171,-16,o),
(394,-16,cs),
(591,-16,o),
(726,91,o),
(713,358,c)
);
},
{
closed = 1;
nodes = (
(394,292,l),
(668,292,l),
(713,358,l),
(394,358,l)
);
}
);
width = 762;
}
);
metricLeft = "=O";
metricRight = "=O";
unicode = 71;
}
{
color = 6;
glyphname = M;
kernLeft = KO_H;
kernRight = KO_H;
layers = (
{
anchors = (
{
name = bottom;
pos = (437,0);
},
{
name = top;
pos = (437,700);
}
);
layerId = "70D15AE9-D38C-43AF-B37D-5B18830B62EE";
shapes = (
{
closed = 1;
nodes = (
(472,0,l),
(301,700,l),
(153,700,l),
(334,0,l)
);
},
{
closed = 1;
nodes = (
(720,700,l),
(572,700,l),
(401,0,l),
(539,0,l)
);
},
{
closed = 1;
nodes = (
(67,0,l),
(207,0,l),
(207,700,l),
(67,700,l)
);
},
{
closed = 1;
nodes = (
(666,0,l),
(806,0,l),
(806,700,l),
(666,700,l)
);
}
);
width = 873;
},
{
anchors = (
{
name = bottom;
pos = (392,0);
},
{
name = top;
pos = (392,700);
}
);
layerId = "B0101270-E9E4-4119-BDB6-6DA172BA76B6";
shapes = (
{
closed = 1;
nodes = (
(411,0,l),
(186,700,l),
(108,700,l),
(339,0,l)
);
},
{
closed = 1;
nodes = (
(675,700,l),
(597,700,l),
(372,0,l),
(444,0,l)
);
},
{
closed = 1;
nodes = (
(72,0,l),
(142,0,l),
(142,700,l),
(72,700,l)
);
},
{
closed = 1;
nodes = (
(641,0,l),
(711,0,l),
(711,700,l),
(641,700,l)
);
}
);
width = 783;
}
);
metricLeft = "=H";
metricRight = "=H";
unicode = 77;
}
{
color = 6;
glyphname = O;
kernLeft = KO_O;
kernRight = KO_O;
layers = (
{
anchors = (
{
name = bottom;
pos = (389,0);
},
{
name = center;
pos = (389,350);
},
{
name = ogonek;
pos = (687,10);
},
{
name = top;
pos = (389,700);
},
{
name = topleft;
pos = (35,700);
},
{
name = topright;
pos = (742,700);
}
);
layerId = "70D15AE9-D38C-43AF-B37D-5B18830B62EE";
shapes = (
{
closed = 1;
nodes = (
(611,-16,o),
(734,148,o),
(734,351,cs),
(734,552,o),
(611,716,o),
(389,716,cs),
(166,716,o),
(43,552,o),
(43,351,cs),
(43,148,o),
(166,-16,o),
(389,-16,cs)
);
},
{
closed = 1;
nodes = (
(252,116,o),
(194,231,o),
(194,351,cs),
(194,469,o),
(252,584,o),
(389,584,cs),
(525,584,o),
(583,469,o),
(583,351,cs),
(583,231,o),
(525,116,o),
(389,116,cs)
);
}
);
width = 777;
},
{
anchors = (
{
name = bottom;
pos = (394,0);
},
{
name = center;
pos = (394,350);
},
{
name = ogonek;
pos = (692,10);
},
{
name = top;
pos = (394,700);
},
{
name = topleft;
pos = (40,700);
},
{
name = topright;
pos = (747,700);
}
);
layerId = "B0101270-E9E4-4119-BDB6-6DA172BA76B6";
shapes = (
{
closed = 1;
nodes = (
(616,-16,o),
(739,148,o),
(739,351,cs),
(739,552,o),
(616,716,o),
(394,716,cs),
(171,716,o),
(48,552,o),
(48,351,cs),
(48,148,o),
(171,-16,o),
(394,-16,cs)
);
},
{
closed = 1;
nodes = (
(218,56,o),
(126,191,o),
(126,351,cs),
(126,509,o),
(218,644,o),
(394,644,cs),
(570,644,o),
(661,509,o),
(661,351,cs),
(661,191,o),
(570,56,o),
(394,56,cs)
);
}
);
width = 787;
}
);
unicode = 79;
userData = {
KernOnName = O;
};
}
{
color = 6;
glyphname = P;
kernLeft = KO_H;
kernRight = KO_P;
layers = (
{
anchors = (
{
name = bottom;
pos = (335,0);
},
{
name = top;
pos = (335,700);
}
);
layerId = "70D15AE9-D38C-43AF-B37D-5B18830B62EE";
shapes = (
{
closed = 1;
nodes = (
(67,0,l),
(212,0,l),
(212,700,l),
(67,700,l)
);
},
{
closed = 1;
nodes = (
(122,230,l),
(309,230,l),
(309,356,l),
(122,356,l)
);
},
{
closed = 1;
nodes = (
(309,230,l),
(491,230,o),
(614,294,o),
(614,465,cs),
(614,636,o),
(491,700,o),
(309,700,c),
(309,574,l),
(405,574,o),
(463,555,o),
(463,465,cs),
(463,375,o),
(405,356,o),
(309,356,c)
);
},
{
closed = 1;
nodes = (
(122,574,l),
(309,574,l),
(309,700,l),
(122,700,l)
);
}
);
width = 663;
},
{
anchors = (
{
name = bottom;
pos = (330,0);
},
{
name = top;
pos = (330,700);
}
);
layerId = "B0101270-E9E4-4119-BDB6-6DA172BA76B6";
shapes = (
{
closed = 1;
nodes = (
(72,0,l),
(147,0,l),
(147,700,l),
(72,700,l)
);
},
{
closed = 1;
nodes = (
(127,260,l),
(294,260,l),
(294,326,l),
(127,326,l)
);
},
{
closed = 1;
nodes = (
(294,260,l),
(486,260,o),
(599,320,o),
(599,481,cs),
(599,642,o),
(486,700,o),
(294,700,c),
(294,634,l),
(440,634,o),
(521,601,o),
(521,481,cs),
(521,361,o),
(440,326,o),
(294,326,c)
);
},
{
closed = 1;
nodes = (
(127,634,l),
(294,634,l),
(294,700,l),
(127,700,l)
);
}
);
width = 653;
}
);
metricLeft = "=H";
unicode = 80;
userData = {
KernOnName = P;
};
}
{
color = 6;
glyphname = R;
kernLeft = KO_H;
kernRight = KO_R;
layers = (
{
anchors = (
{
name = bottom;
pos = (332,0);
},
{
name = top;
pos = (308,700);
}
);
layerId = "70D15AE9-D38C-43AF-B37D-5B18830B62EE";
shapes = (
{
closed = 1;
nodes = (
(67,0,l),
(212,0,l),
(212,700,l),
(67,700,l)
);
},
{
closed = 1;
nodes = (
(122,240,l),
(309,240,l),
(309,366,l),
(122,366,l)
);
},
{
closed = 1;
nodes = (
(309,240,l),
(491,240,o),
(614,299,o),
(614,470,cs),
(614,641,o),
(491,700,o),
(309,700,c),
(309,574,l),
(405,574,o),
(463,550,o),
(463,470,cs),
(463,390,o),
(405,366,o),
(309,366,c)
);
},
{
closed = 1;
nodes = (
(122,574,l),
(309,574,l),
(309,700,l),
(122,700,l)
);
},
{
closed = 1;
nodes = (
(454,0,l),
(619,0,l),
(462,323,l),
(317,323,l)
);
}
);
width = 672;
},
{
anchors = (
{
name = bottom;
pos = (335,0);
},
{
name = top;
pos = (328,700);
}
);
layerId = "B0101270-E9E4-4119-BDB6-6DA172BA76B6";
shapes = (
{
closed = 1;
nodes = (
(72,0,l),
(147,0,l),
(147,700,l),
(72,700,l)
);
},
{
closed = 1;
nodes = (
(127,270,l),
(314,270,l),
(314,336,l),
(127,336,l)
);
},
{
closed = 1;
nodes = (
(314,270,l),
(506,270,o),
(619,325,o),
(619,486,cs),
(619,647,o),
(506,700,o),
(314,700,c),
(314,634,l),
(460,634,o),
(541,606,o),
(541,486,cs),
(541,366,o),
(460,336,o),
(314,336,c)
);
},
{
closed = 1;
nodes = (
(127,634,l),
(314,634,l),
(314,700,l),
(127,700,l)
);
},
{
closed = 1;
nodes = (
(519,0,l),
(604,0,l),
(447,323,l),
(372,323,l)
);
}
);
width = 677;
}
);
metricLeft = "=H";
unicode = 82;
userData = {
KernOnName = R;
};
}
{
color = 6;
glyphname = S;
kernLeft = KO_S;
kernRight = KO_S;
layers = (
{
anchors = (
{
name = bottom;
pos = (333,0);
},
{
name = top;
pos = (333,700);
}
);
layerId = "70D15AE9-D38C-43AF-B37D-5B18830B62EE";
shapes = (
{
closed = 1;
nodes = (
(50,223,l),
(55,85,o),
(177,-16,o),
(338,-16,cs),
(514,-16,o),
(616,59,o),
(616,189,cs),
(616,475,o),
(209,370,o),
(209,510,cs),
(209,552,o),
(251,584,o),
(329,584,cs),
(408,584,o),
(447,544,o),
(453,478,c),
(605,478,l),
(605,614,o),
(489,716,o),
(334,716,cs),
(174,716,o),
(58,629,o),
(58,510,cs),
(58,221,o),
(465,317,o),
(465,189,cs),
(465,138,o),
(412,116,o),
(344,116,cs),
(268,116,o),
(210,157,o),
(203,223,c)
);
}
);
width = 666;
},
{
anchors = (
{
name = bottom;
pos = (338,0);
},
{
name = top;
pos = (338,700);
}
);
layerId = "B0101270-E9E4-4119-BDB6-6DA172BA76B6";
shapes = (
{
closed = 1;
nodes = (
(55,223,l),
(60,87,o),
(180,-16,o),
(343,-16,cs),
(517,-16,o),
(621,58,o),
(621,189,cs),
(621,465,o),
(141,310,o),
(141,510,cs),
(141,592,o),
(206,644,o),
(334,644,cs),
(463,644,o),
(522,584,o),
(528,478,c),
(610,478,l),
(610,619,o),
(489,716,o),
(339,716,cs),
(169,716,o),
(63,622,o),
(63,510,cs),
(63,231,o),
(543,377,o),
(543,189,cs),
(543,108,o),
(467,56,o),
(349,56,cs),
(233,56,o),
(145,117,o),
(138,223,c)
);
}
);
width = 676;
}
);
unicode = 83;
userData = {
KernOnName = S;
};
}
{
color = 6;
glyphname = T;
kernLeft = KO_T;
kernRight = KO_T;
layers = (
{
anchors = (
{
name = bottom;
pos = (326,0);
},
{
name = center;
pos = (326,350);
},
{
name = top;
pos = (326,700);
}
);
layerId = "70D15AE9-D38C-43AF-B37D-5B18830B62EE";
shapes = (
{
closed = 1;
nodes = (
(253,0,l),
(398,0,l),
(398,700,l),
(253,700,l)
);
},
{
closed = 1;
nodes = (
(35,574,l),
(616,574,l),
(616,700,l),
(35,700,l)
);
}
);
width = 651;
},
{
anchors = (
{
name = bottom;
pos = (301,0);
},
{
name = center;
pos = (301,350);
},
{
name = top;
pos = (301,700);
}
);
guides = (
{
angle = 270;
pos = (301,0);
}
);
layerId = "B0101270-E9E4-4119-BDB6-6DA172BA76B6";
shapes = (
{
closed = 1;
nodes = (
(263,0,l),
(338,0,l),
(338,700,l),
(263,700,l)
);
},
{
closed = 1;
nodes = (
(40,634,l),
(561,634,l),
(561,700,l),
(40,700,l)
);
}
);
width = 601;
}
);
unicode = 84;
userData = {
KernOnName = T;
};
}
{
color = 6;
glyphname = U;
kernLeft = KO_U;
kernRight = KO_U;
layers = (
{
anchors = (
{
name = bottom;
pos = (352,0);
},
{
name = ogonek;
pos = (496,10);
},
{
name = top;
pos = (352,700);
},
{
name = topright;
pos = (658,700);
}
);
layerId = "70D15AE9-D38C-43AF-B37D-5B18830B62EE";
shapes = (
{
closed = 1;
nodes = (
(496,300,l),
(496,184,o),
(464,115,o),
(352,115,cs),
(239,115,o),
(207,184,o),
(207,300,c),
(62,300,l),
(62,102,o),
(143,-16,o),
(352,-16,cs),
(560,-16,o),
(641,102,o),
(641,300,c)
);
},
{
closed = 1;
nodes = (
(62,300,l),
(207,300,l),
(207,700,l),
(62,700,l)
);
},
{
closed = 1;
nodes = (
(496,300,l),
(641,300,l),
(641,700,l),
(496,700,l)
);
}
);
width = 703;
},
{
anchors = (
{
name = bottom;
pos = (327,0);
},
{
name = ogonek;
pos = (432,0);
},
{
name = top;
pos = (327,700);
},
{
name = topright;
pos = (603,700);
}
);
layerId = "B0101270-E9E4-4119-BDB6-6DA172BA76B6";
shapes = (
{
closed = 1;
nodes = (
(511,300,l),
(511,144,o),
(469,56,o),
(327,56,cs),
(184,56,o),
(142,144,o),
(142,300,c),
(67,300,l),
(67,102,o),
(138,-16,o),
(327,-16,cs),
(515,-16,o),
(586,102,o),
(586,300,c)
);
},
{
closed = 1;
nodes = (
(67,300,l),
(142,300,l),
(142,700,l),
(67,700,l)
);
},
{
closed = 1;
nodes = (
(511,300,l),
(586,300,l),
(586,700,l),
(511,700,l)
);
}
);
width = 653;
}
);
metricLeft = "=H-5";
metricRight = "=H-5";
unicode = 85;
userData = {
KernOnName = U;
};
}
{
color = 6;
glyphname = V;
kernLeft = KO_V;
kernRight = KO_V;
layers = (
{
anchors = (
{
name = bottom;
pos = (349,0);
},
{
name = top;
pos = (349,700);
}
);
layerId = "70D15AE9-D38C-43AF-B37D-5B18830B62EE";
shapes = (
{
closed = 1;
nodes = (
(384,0,l),
(183,700,l),
(35,700,l),
(246,0,l)
);
},
{
closed = 1;
nodes = (
(662,700,l),
(514,700,l),
(313,0,l),
(451,0,l)
);
}
);
width = 697;
},
{
anchors = (
{
name = bottom;
pos = (334,0);
},
{
name = top;
pos = (334,700);
}
);
layerId = "B0101270-E9E4-4119-BDB6-6DA172BA76B6";
shapes = (
{
closed = 1;
nodes = (
(353,0,l),
(122,700,l),
(40,700,l),
(281,0,l)
);
},
{
closed = 1;
nodes = (
(627,700,l),
(545,700,l),
(304,0,l),
(376,0,l)
);
}
);
width = 667;
}
);
unicode = 86;
userData = {
KernOnName = V;
};
}
{
color = 6;
glyphname = X;
kernLeft = KO_X;
kernRight = KO_X;
layers = (
{
anchors = (
{
name = bottom;
pos = (350,0);
},
{
name = top;
pos = (350,700);
}
);
layerId = "70D15AE9-D38C-43AF-B37D-5B18830B62EE";
shapes = (
{
closed = 1;
nodes = (
(664,0,l),
(206,700,l),
(38,700,l),
(496,0,l)
);
},
{
closed = 1;
nodes = (
(661,700,l),
(493,700,l),
(35,0,l),
(203,0,l)
);
}
);
width = 699;
},
{
anchors = (
{
name = bottom;
pos = (315,0);
},
{
name = top;
pos = (315,700);
}
);
layerId = "B0101270-E9E4-4119-BDB6-6DA172BA76B6";
shapes = (
{
closed = 1;
nodes = (
(589,0,l),
(131,700,l),
(43,700,l),
(501,0,l)
);
},
{
closed = 1;
nodes = (
(586,700,l),
(498,700,l),
(40,0,l),
(128,0,l)
);
}
);
width = 629;
}
);
unicode = 88;
userData = {
KernOnName = X;
};
}
{
color = 6;
glyphname = Y;
kernLeft = KO_Y;
kernRight = KO_Y;
layers = (
{
anchors = (
{
name = bottom;
pos = (329,0);
},
{
name = top;
pos = (329,700);
},
{
name = topleft;
pos = (45,700);
}
);
layerId = "70D15AE9-D38C-43AF-B37D-5B18830B62EE";
shapes = (
{
closed = 1;
nodes = (
(382,192,l),
(622,700,l),
(474,700,l),
(310,339,l),
(348,339,l),
(183,700,l),
(35,700,l),
(275,192,l)
);
},
{
closed = 1;
nodes = (
(256,0,l),
(401,0,l),
(401,349,l),
(256,349,l)
);
}
);
width = 657;
},
{
anchors = (
{
name = bottom;
pos = (304,0);
},
{
name = top;
pos = (304,700);
},
{
name = topleft;
pos = (50,700);
}
);
layerId = "B0101270-E9E4-4119-BDB6-6DA172BA76B6";
shapes = (
{
closed = 1;
nodes = (
(327,222,l),
(567,700,l),
(479,700,l),
(291,297,l),
(317,297,l),
(128,700,l),
(40,700,l),
(280,222,l)
);
},
{
closed = 1;
nodes = (
(266,0,l),
(341,0,l),
(341,309,l),
(266,309,l)
);
}
);
width = 607;
}
);
metricRight = "=V";
unicode = 89;
userData = {
KernOnName = Y;
};
}
{
color = 6;
glyphname = bracketleft;
kernLeft = KO_exclam;
kernRight = KO_bracketleft;
layers = (
{
layerId = "70D15AE9-D38C-43AF-B37D-5B18830B62EE";
shapes = (
{
closed = 1;
nodes = (
(67,-156,l),
(193,-156,l),
(193,700,l),
(67,700,l)
);
},
{
closed = 1;
nodes = (
(193,620,l),
(356,620,l),
(356,700,l),
(193,700,l)
);
},
{
closed = 1;
nodes = (
(193,-156,l),
(356,-156,l),
(356,-76,l),
(193,-76,l)
);
}
);
width = 391;
},
{
layerId = "B0101270-E9E4-4119-BDB6-6DA172BA76B6";
shapes = (
{
closed = 1;
nodes = (
(72,-156,l),
(146,-156,l),
(146,700,l),
(72,700,l)
);
},
{
closed = 1;
nodes = (
(146,646,l),
(291,646,l),
(291,700,l),
(146,700,l)
);
},
{
closed = 1;
nodes = (
(146,-156,l),
(291,-156,l),
(291,-102,l),
(146,-102,l)
);
}
);
width = 331;
},
{
associatedMasterId = "B0101270-E9E4-4119-BDB6-6DA172BA76B6";
layerId = "AA7966E6-FA97-45FD-BDFE-C1ABC2F21527";
name = "2 Sep 25 at 13:54";
shapes = (
{
closed = 1;
nodes = (
(72,-156,l),
(138,-156,l),
(138,700,l),
(72,700,l)
);
},
{
closed = 1;
nodes = (
(138,650,l),
(281,650,l),
(281,700,l),
(138,700,l)
);
},
{
closed = 1;
nodes = (
(138,-156,l),
(281,-156,l),
(281,-106,l),
(138,-106,l)
);
}
);
width = 321;
},
{
associatedMasterId = "70D15AE9-D38C-43AF-B37D-5B18830B62EE";
layerId = "BAF94BD2-0C54-4AC0-841A-B297A87336A4";
name = "2 Sep 25 at 13:54";
shapes = (
{
closed = 1;
nodes = (
(67,-156,l),
(193,-156,l),
(193,700,l),
(67,700,l)
);
},
{
closed = 1;
nodes = (
(193,620,l),
(356,620,l),
(356,700,l),
(193,700,l)
);
},
{
closed = 1;
nodes = (
(193,-156,l),
(356,-156,l),
(356,-76,l),
(193,-76,l)
);
}
);
width = 391;
}
);
metricRight = "=parenleft";
unicode = 91;
}
{
color = 6;
glyphname = bracketright;
kernLeft = KO_bracketright;
kernRight = KO_exclam;
layers = (
{
layerId = "70D15AE9-D38C-43AF-B37D-5B18830B62EE";
shapes = (
{
closed = 1;
nodes = (
(198,700,l),
(198,-156,l),
(324,-156,l),
(324,700,l)
);
},
{
closed = 1;
nodes = (
(35,700,l),
(35,620,l),
(198,620,l),
(198,700,l)
);
},
{
closed = 1;
nodes = (
(35,-76,l),
(35,-156,l),
(198,-156,l),
(198,-76,l)
);
}
);
width = 391;
},
{
layerId = "B0101270-E9E4-4119-BDB6-6DA172BA76B6";
shapes = (
{
closed = 1;
nodes = (
(186,700,l),
(186,-156,l),
(259,-156,l),
(259,700,l)
);
},
{
closed = 1;
nodes = (
(40,700,l),
(40,646,l),
(186,646,l),
(186,700,l)
);
},
{
closed = 1;
nodes = (
(40,-102,l),
(40,-156,l),
(186,-156,l),
(186,-102,l)
);
}
);
width = 331;
},
{
associatedMasterId = "B0101270-E9E4-4119-BDB6-6DA172BA76B6";
layerId = "2B13F717-1333-439E-9B5F-4993A470D716";
name = "2 Sep 25 at 13:54";
shapes = (
{
closed = 1;
nodes = (
(183,700,l),
(183,-156,l),
(249,-156,l),
(249,700,l)
);
},
{
closed = 1;
nodes = (
(40,700,l),
(40,650,l),
(183,650,l),
(183,700,l)
);
},
{
closed = 1;
nodes = (
(40,-106,l),
(40,-156,l),
(183,-156,l),
(183,-106,l)
);
}
);
width = 321;
},
{
associatedMasterId = "70D15AE9-D38C-43AF-B37D-5B18830B62EE";
layerId = "580BDFB8-4A3D-4210-9389-EFF8D962470B";
name = "2 Sep 25 at 13:54";
shapes = (
{
closed = 1;
nodes = (
(198,700,l),
(198,-156,l),
(324,-156,l),
(324,700,l)
);
},
{
closed = 1;
nodes = (
(35,700,l),
(35,620,l),
(198,620,l),
(198,700,l)
);
},
{
closed = 1;
nodes = (
(35,-76,l),
(35,-156,l),
(198,-156,l),
(198,-76,l)
);
}
);
width = 391;
}
);
metricRight = "=H";
unicode = 93;
}
{
color = 6;
glyphname = asciicircum;
kernLeft = KO_asciicircum;
kernRight = KO_asciicircum;
layers = (
{
layerId = "70D15AE9-D38C-43AF-B37D-5B18830B62EE";
shapes = (
{
closed = 1;
nodes = (
(180,364,l),
(270,700,l),
(147,700,l),
(45,364,l)
);
},
{
closed = 1;
nodes = (
(422,364,l),
(320,700,l),
(197,700,l),
(287,364,l)
);
}
);
width = 467;
},
{
layerId = "B0101270-E9E4-4119-BDB6-6DA172BA76B6";
shapes = (
{
closed = 1;
nodes = (
(125,364,l),
(225,700,l),
(162,700,l),
(50,364,l)
);
},
{
closed = 1;
nodes = (
(357,364,l),
(245,700,l),
(182,700,l),
(282,364,l)
);
}
);
width = 407;
}
);
unicode = 94;
}
{
color = 6;
glyphname = a;
kernLeft = KO_a;
kernRight = KO_a;
layers = (
{
anchors = (
{
name = bottom;
pos = (301,0);
},
{
name = ogonek;
pos = (547,0);
},
{
name = top;
pos = (306,560);
}
);
layerId = "70D15AE9-D38C-43AF-B37D-5B18830B62EE";
shapes = (
{
closed = 1;
nodes = (
(404,0,l),
(547,0,l),
(547,320,l),
(404,320,l)
);
},
{
closed = 1;
nodes = (
(142,576,o),
(50,477,o),
(50,363,c),
(199,363,l),
(199,409,o),
(234,451,o),
(305,451,cs),
(389,451,o),
(404,391,o),
(404,320,c),
(547,320,l),
(547,477,o),
(463,576,o),
(305,576,c)
);
},
{
closed = 1;
nodes = (
(269,349,o),
(69,338,o),
(69,159,cs),
(69,47,o),
(148,-16,o),
(258,-16,cs),
(365,-16,o),
(431,65,o),
(431,177,c),
(404,221,l),
(404,130,o),
(338,114,o),
(286,114,cs),
(250,114,o),
(218,131,o),
(218,167,cs),
(218,220,o),
(282,264,o),
(439,257,c),
(418,352,l)
);
}
);
width = 606;
},
{
anchors = (
{
name = bottom;
pos = (286,0);
},
{
name = ogonek;
pos = (512,0);
},
{
name = top;
pos = (286,560);
}
);
layerId = "B0101270-E9E4-4119-BDB6-6DA172BA76B6";
shapes = (
{
closed = 1;
nodes = (
(439,0,l),
(512,0,l),
(512,320,l),
(439,320,l)
);
},
{
closed = 1;
nodes = (
(137,576,o),
(55,471,o),
(55,363,c),
(134,363,l),
(134,445,o),
(189,508,o),
(290,508,cs),
(390,508,o),
(439,441,o),
(439,320,c),
(512,320,l),
(512,477,o),
(438,576,o),
(290,576,c)
);
},
{
closed = 1;
nodes = (
(264,359,o),
(64,338,o),
(64,159,cs),
(64,47,o),
(152,-16,o),
(262,-16,cs),
(390,-16,o),
(443,58,o),
(466,170,c),
(439,221,l),
(439,130,o),
(386,44,o),
(281,44,cs),
(186,44,o),
(140,86,o),
(140,163,cs),
(140,251,o),
(251,306,o),
(464,281,c),
(443,342,l)
);
}
);
width = 576;
}
);
metricRight = "=n";
unicode = 97;
userData = {
KernOnName = a;
};
}
{
color = 6;
glyphname = d;
kernLeft = KO_d;
kernRight = KO_l;
layers = (
{
anchors = (
{
name = bottom;
pos = (328,0);
},
{
name = center;
pos = (484,600);
},
{
name = top;
pos = (328,560);
},
{
name = topright;
pos = (620,750);
}
);
layerId = "70D15AE9-D38C-43AF-B37D-5B18830B62EE";
shapes = (
{
closed = 1;
nodes = (
(370,-16,o),
(420,13,o),
(452,61,c),
(452,498,l),
(418,548,o),
(367,576,o),
(292,576,cs),
(133,576,o),
(40,453,o),
(40,279,cs),
(40,106,o),
(133,-16,o),
(292,-16,cs)
);
},
{
closed = 1;
nodes = (
(230,112,o),
(186,186,o),
(186,279,cs),
(186,373,o),
(230,448,o),
(317,448,cs),
(409,448,o),
(452,373,o),
(452,279,cs),
(452,186,o),
(409,112,o),
(317,112,cs)
);
},
{
closed = 1;
nodes = (
(595,0,l),
(595,750,l),
(452,750,l),
(452,0,l)
);
}
);
width = 658;
},
{
anchors = (
{
name = bottom;
pos = (318,0);
},
{
name = center;
pos = (466,600);
},
{
name = top;
pos = (318,560);
},
{
name = topright;
pos = (582,750);
}
);
layerId = "B0101270-E9E4-4119-BDB6-6DA172BA76B6";
shapes = (
{
closed = 1;
nodes = (
(397,-16,o),
(463,34,o),
(497,108,c),
(497,450,l),
(461,527,o),
(394,576,o),
(297,576,cs),
(148,576,o),
(45,453,o),
(45,279,cs),
(45,106,o),
(148,-16,o),
(297,-16,cs)
);
},
{
closed = 1;
nodes = (
(195,52,o),
(121,136,o),
(121,279,cs),
(121,423,o),
(195,508,o),
(302,508,cs),
(431,508,o),
(497,413,o),
(497,279,cs),
(497,146,o),
(431,52,o),
(302,52,cs)
);
},
{
closed = 1;
nodes = (
(570,0,l),
(570,750,l),
(497,750,l),
(497,0,l)
);
}
);
width = 638;
}
);
metricLeft = "=o";
metricRight = "=l";
unicode = 100;
userData = {
KernOnName = d;
};
}
{
color = 6;
glyphname = e;
kernLeft = KO_o;
kernRight = KO_e;
layers = (
{
anchors = (
{
name = bottom;
pos = (313,0);
},
{
name = ogonek;
pos = (425,0);
},
{
name = top;
pos = (313,560);
}
);
layerId = "70D15AE9-D38C-43AF-B37D-5B18830B62EE";
shapes = (
{
closed = 1;
nodes = (
(462,-16,o),
(559,63,o),
(583,178,c),
(432,178,l),
(417,140,o),
(380,112,o),
(326,112,cs),
(223,112,o),
(186,186,o),
(186,279,cs),
(186,373,o),
(223,448,o),
(326,448,cs),
(414,448,o),
(447,379,o),
(438,321,c),
(484,348,l),
(121,348,l),
(121,232,l),
(581,232,l),
(612,451,o),
(478,576,o),
(326,576,cs),
(153,576,o),
(40,453,o),
(40,279,cs),
(40,106,o),
(153,-16,o),
(326,-16,cs)
);
}
);
width = 625;
},
{
anchors = (
{
name = bottom;
pos = (317,0);
},
{
name = ogonek;
pos = (430,0);
},
{
name = top;
pos = (317,560);
}
);
layerId = "B0101270-E9E4-4119-BDB6-6DA172BA76B6";
shapes = (
{
closed = 1;
nodes = (
(467,-16,o),
(556,62,o),
(585,177,c),
(508,177,l),
(486,107,o),
(433,52,o),
(331,52,cs),
(198,52,o),
(121,146,o),
(121,279,cs),
(121,413,o),
(198,508,o),
(331,508,cs),
(448,508,o),
(519,417,o),
(520,285,c),
(563,321,l),
(87,321,l),
(87,255,l),
(587,255,l),
(601,458,o),
(483,576,o),
(331,576,cs),
(158,576,o),
(45,453,o),
(45,279,cs),
(45,106,o),
(158,-16,o),
(331,-16,cs)
);
}
);
width = 633;
}
);
metricLeft = "=o";
metricRight = "=o";
unicode = 101;
}
{
color = 6;
glyphname = f;
kernLeft = KO_f;
kernRight = KO_f;
layers = (
{
anchors = (
{
name = bottom;
pos = (195,0);
},
{
name = top;
pos = (195,750);
}
);
layerId = "70D15AE9-D38C-43AF-B37D-5B18830B62EE";
shapes = (
{
closed = 1;
nodes = (
(242,0,l),
(242,578,l),
(242,611,o),
(260,628,o),
(296,628,c),
(346,628,l),
(346,750,l),
(295,750,l),
(164,750,o),
(99,693,o),
(99,578,c),
(99,0,l)
);
},
{
closed = 1;
nodes = (
(35,438,l),
(342,438,l),
(342,560,l),
(35,560,l)
);
}
);
width = 391;
},
{
anchors = (
{
name = bottom;
pos = (200,0);
},
{
name = top;
pos = (200,750);
}
);
layerId = "B0101270-E9E4-4119-BDB6-6DA172BA76B6";
shapes = (
{
closed = 1;
nodes = (
(177,0,l),
(177,638,l),
(177,671,o),
(195,688,o),
(231,688,c),
(351,688,l),
(351,750,l),
(230,750,l),
(139,750,o),
(104,693,o),
(104,638,c),
(104,0,l)
);
},
{
closed = 1;
nodes = (
(40,498,l),
(327,498,l),
(327,560,l),
(40,560,l)
);
}
);
width = 401;
}
);
unicode = 102;
userData = {
KernOnName = f;
};
}
{
color = 6;
glyphname = h;
kernLeft = KO_l;
kernRight = KO_n;
layers = (
{
anchors = (
{
name = bottom;
pos = (311,0);
},
{
name = center;
pos = (165,600);
},
{
name = top;
pos = (311,730);
}
);
layerId = "70D15AE9-D38C-43AF-B37D-5B18830B62EE";
shapes = (
{
closed = 1;
nodes = (
(63,0,l),
(206,0,l),
(206,750,l),
(63,750,l)
);
},
{
closed = 1;
nodes = (
(206,407,o),
(283,452,o),
(343,452,cs),
(419,452,o),
(426,398,o),
(426,332,cs),
(426,0,l),
(569,0,l),
(569,345,ls),
(569,516,o),
(491,576,o),
(383,576,cs),
(220,576,o),
(190,459,o),
(190,389,c),
(206,274,l)
);
}
);
width = 628;
},
{
anchors = (
{
name = bottom;
pos = (291,0);
},
{
name = center;
pos = (157,600);
},
{
name = top;
pos = (291,720);
}
);
layerId = "B0101270-E9E4-4119-BDB6-6DA172BA76B6";
shapes = (
{
closed = 1;
nodes = (
(68,0,l),
(141,0,l),
(141,750,l),
(68,750,l)
);
},
{
closed = 1;
nodes = (
(141,417,o),
(218,512,o),
(318,512,cs),
(414,512,o),
(451,448,o),
(451,332,cs),
(451,0,l),
(524,0,l),
(524,345,ls),
(524,516,o),
(441,576,o),
(333,576,cs),
(177,576,o),
(125,459,o),
(125,389,c),
(141,284,l)
);
}
);
width = 588;
}
);
metricLeft = "=l";
metricRight = "=n";
unicode = 104;
userData = {
KernOnName = h;
};
}
{
color = 6;
glyphname = i;
kernLeft = KO_i;
kernRight = KO_i;
layers = (
{
anchors = (
{
name = bottom;
pos = (140,0);
}
);
layerId = "70D15AE9-D38C-43AF-B37D-5B18830B62EE";
shapes = (
{
closed = 1;
nodes = (
(68,0,l),
(211,0,l),
(211,560,l),
(68,560,l)
);
},
{
closed = 1;
nodes = (
(63,597,l),
(216,597,l),
(216,750,l),
(63,750,l)
);
}
);
width = 279;
},
{
anchors = (
{
name = bottom;
pos = (113,0);
}
);
layerId = "B0101270-E9E4-4119-BDB6-6DA172BA76B6";
shapes = (
{
closed = 1;
nodes = (
(76,0,l),
(149,0,l),
(149,560,l),
(76,560,l)
);
},
{
closed = 1;
nodes = (
(68,657,l),
(157,657,l),
(157,750,l),
(68,750,l)
);
}
);
width = 225;
}
);
metricLeft = "=l";
metricRight = "=l";
unicode = 105;
userData = {
KernOnName = i;
};
}
{
color = 6;
glyphname = j;
kernLeft = KO_j;
kernRight = KO_i;
layers = (
{
layerId = "70D15AE9-D38C-43AF-B37D-5B18830B62EE";
shapes = (
{
closed = 1;
nodes = (
(62,597,l),
(215,597,l),
(215,750,l),
(62,750,l)
);
},
{
closed = 1;
nodes = (
(67,560,l),
(67,-28,l),
(67,-61,o),
(49,-78,o),
(13,-78,c),
(-57,-78,l),
(-57,-200,l),
(14,-200,l),
(145,-200,o),
(210,-143,o),
(210,-28,c),
(210,560,l)
);
}
);
width = 278;
},
{
layerId = "B0101270-E9E4-4119-BDB6-6DA172BA76B6";
shapes = (
{
closed = 1;
nodes = (
(119,657,l),
(208,657,l),
(208,750,l),
(119,750,l)
);
},
{
closed = 1;
nodes = (
(127,560,l),
(127,-68,l),
(127,-122,o),
(108,-138,o),
(68,-138,c),
(-32,-138,l),
(-32,-200,l),
(69,-200,l),
(160,-200,o),
(200,-158,o),
(200,-68,c),
(200,560,l)
);
}
);
width = 276;
}
);
metricRight = "=i";
unicode = 106;
userData = {
KernOnName = j;
};
}
{
color = 6;
glyphname = k;
kernLeft = KO_l;
kernRight = KO_k;
layers = (
{
anchors = (
{
name = bottom;
pos = (289,0);
},
{
name = top;
pos = (289,750);
}
);
layerId = "70D15AE9-D38C-43AF-B37D-5B18830B62EE";
shapes = (
{
closed = 1;
nodes = (
(63,0,l),
(206,0,l),
(206,750,l),
(63,750,l)
);
},
{
closed = 1;
nodes = (
(393,0,l),
(549,0,l),
(355,336,l),
(212,336,l)
);
},
{
closed = 1;
nodes = (
(368,560,l),
(121,247,l),
(192,126,l),
(536,560,l)
);
}
);
width = 571;
},
{
anchors = (
{
name = bottom;
pos = (269,0);
},
{
name = top;
pos = (269,750);
}
);
layerId = "B0101270-E9E4-4119-BDB6-6DA172BA76B6";
shapes = (
{
closed = 1;
nodes = (
(68,0,l),
(141,0,l),
(141,750,l),
(68,750,l)
);
},
{
closed = 1;
nodes = (
(414,0,l),
(504,0,l),
(273,355,l),
(209,319,l)
);
},
{
closed = 1;
nodes = (
(379,560,l),
(106,243,l),
(97,126,l),
(471,560,l)
);
}
);
width = 526;
}
);
metricLeft = "=l";
metricRight = "=22";
unicode = 107;
userData = {
KernOnName = k;
};
}
{
color = 6;
glyphname = l;
kernLeft = KO_l;
kernRight = KO_l;
layers = (
{
anchors = (
{
name = bottom;
pos = (135,0);
},
{
name = center;
pos = (135,280);
},
{
name = top;
pos = (120,750);
},
{
name = topright;
pos = (231,750);
}
);
layerId = "70D15AE9-D38C-43AF-B37D-5B18830B62EE";
shapes = (
{
closed = 1;
nodes = (
(63,0,l),
(206,0,l),
(206,750,l),
(63,750,l)
);
}
);
width = 269;
},
{
anchors = (
{
name = bottom;
pos = (105,0);
},
{
name = center;
pos = (105,280);
},
{
name = top;
pos = (105,750);
},
{
name = topright;
pos = (166,750);
}
);
layerId = "B0101270-E9E4-4119-BDB6-6DA172BA76B6";
shapes = (
{
closed = 1;
nodes = (
(68,0,l),
(141,0,l),
(141,750,l),
(68,750,l)
);
}
);
width = 209;
}
);
unicode = 108;
userData = {
KernOnName = l;
};
}
{
color = 6;
glyphname = r;
kernLeft = KO_n;
kernRight = KO_r;
layers = (
{
anchors = (
{
name = bottom;
pos = (133,0);
},
{
name = top;
pos = (208,560);
}
);
layerId = "70D15AE9-D38C-43AF-B37D-5B18830B62EE";
shapes = (
{
closed = 1;
nodes = (
(61,0,l),
(204,0,l),
(204,560,l),
(61,560,l)
);
},
{
closed = 1;
nodes = (
(204,407,o),
(262,436,o),
(381,436,c),
(381,576,l),
(202,576,o),
(189,447,o),
(189,377,c),
(204,274,l)
);
}
);
width = 416;
},
{
anchors = (
{
name = bottom;
pos = (103,0);
},
{
name = top;
pos = (193,560);
}
);
layerId = "B0101270-E9E4-4119-BDB6-6DA172BA76B6";
shapes = (
{
closed = 1;
nodes = (
(66,0,l),
(139,0,l),
(139,560,l),
(66,560,l)
);
},
{
closed = 1;
nodes = (
(139,447,o),
(217,499,o),
(336,499,c),
(336,576,l),
(157,576,o),
(124,447,o),
(124,377,c),
(139,314,l)
);
}
);
width = 367;
}
);
metricLeft = "=n";
unicode = 114;
userData = {
KernOnName = r;
};
}
{
color = 6;
glyphname = s;
kernLeft = KO_s;
kernRight = KO_s;
layers = (
{
anchors = (
{
name = bottom;
pos = (279,0);
},
{
name = top;
pos = (279,560);
}
);
layerId = "70D15AE9-D38C-43AF-B37D-5B18830B62EE";
shapes = (
{
closed = 1;
nodes = (
(40,177,l),
(44,67,o),
(151,-16,o),
(283,-16,cs),
(424,-16,o),
(518,58,o),
(518,164,cs),
(518,385,o),
(189,292,o),
(189,396,cs),
(189,429,o),
(219,454,o),
(276,454,cs),
(323,454,o),
(361,437,o),
(366,384,c),
(509,384,l),
(509,498,o),
(401,576,o),
(280,576,cs),
(143,576,o),
(47,486,o),
(47,396,cs),
(47,172,o),
(376,257,o),
(376,164,cs),
(376,122,o),
(338,106,o),
(288,106,cs),
(236,106,o),
(190,124,o),
(184,177,c)
);
}
);
width = 558;
},
{
anchors = (
{
name = bottom;
pos = (274,0);
},
{
name = top;
pos = (274,560);
}
);
layerId = "B0101270-E9E4-4119-BDB6-6DA172BA76B6";
shapes = (
{
closed = 1;
nodes = (
(45,177,l),
(49,67,o),
(146,-16,o),
(278,-16,cs),
(419,-16,o),
(503,48,o),
(503,154,cs),
(503,375,o),
(124,252,o),
(124,406,cs),
(124,469,o),
(174,514,o),
(271,514,cs),
(358,514,o),
(426,467,o),
(431,384,c),
(494,384,l),
(494,498,o),
(396,576,o),
(275,576,cs),
(138,576,o),
(52,496,o),
(52,406,cs),
(52,182,o),
(431,297,o),
(431,154,cs),
(431,82,o),
(373,46,o),
(283,46,cs),
(191,46,o),
(120,94,o),
(114,177,c)
);
}
);
width = 548;
}
);
metricRight = "=o";
unicode = 115;
userData = {
KernOnName = s;
};
}
{
color = 6;
glyphname = t;
kernLeft = KO_t;
kernRight = KO_t;
layers = (
{
anchors = (
{
name = bottom;
pos = (216,0);
},
{
name = center;
pos = (189,280);
},
{
name = top;
pos = (189,700);
},
{
name = topright;
pos = (314,750);
}
);
layerId = "70D15AE9-D38C-43AF-B37D-5B18830B62EE";
shapes = (
{
closed = 1;
nodes = (
(36,438,l),
(331,438,l),
(331,560,l),
(36,560,l)
);
},
{
closed = 1;
nodes = (
(100,172,l),
(100,57,o),
(165,0,o),
(296,0,c),
(347,0,l),
(347,122,l),
(297,122,l),
(261,122,o),
(243,139,o),
(243,172,c),
(243,700,l),
(100,700,l)
);
}
);
width = 397;
},
{
anchors = (
{
name = bottom;
pos = (210,0);
},
{
name = center;
pos = (194,280);
},
{
name = top;
pos = (194,700);
},
{
name = topright;
pos = (270,750);
}
);
layerId = "B0101270-E9E4-4119-BDB6-6DA172BA76B6";
shapes = (
{
closed = 1;
nodes = (
(41,498,l),
(336,498,l),
(336,560,l),
(41,560,l)
);
},
{
closed = 1;
nodes = (
(145,132,l),
(145,57,o),
(190,0,o),
(281,0,c),
(352,0,l),
(352,62,l),
(282,62,l),
(241,62,o),
(218,82,o),
(218,132,c),
(218,700,l),
(145,700,l)
);
}
);
width = 402;
}
);
unicode = 116;
userData = {
KernOnName = t;
};
}
{
color = 6;
glyphname = v;
kernLeft = KO_v;
kernRight = KO_v;
layers = (
{
anchors = (
{
name = bottom;
pos = (300,0);
},
{
name = top;
pos = (300,560);
}
);
layerId = "70D15AE9-D38C-43AF-B37D-5B18830B62EE";
shapes = (
{
closed = 1;
nodes = (
(203,0,l),
(336,0,l),
(186,560,l),
(33,560,l)
);
},
{
closed = 1;
nodes = (
(413,560,l),
(263,0,l),
(396,0,l),
(566,560,l)
);
}
);
width = 599;
},
{
anchors = (
{
name = bottom;
pos = (282,0);
},
{
name = top;
pos = (282,560);
}
);
layerId = "B0101270-E9E4-4119-BDB6-6DA172BA76B6";
shapes = (
{
closed = 1;
nodes = (
(228,0,l),
(301,0,l),
(118,560,l),
(38,560,l)
);
},
{
closed = 1;
nodes = (
(446,560,l),
(263,0,l),
(336,0,l),
(526,560,l)
);
}
);
width = 564;
}
);
unicode = 118;
userData = {
KernOnName = v;
};
}
{
color = 6;
glyphname = w;
kernLeft = KO_w;
kernRight = KO_w;
layers = (
{
anchors = (
{
name = bottom;
pos = (421,0);
},
{
name = top;
pos = (421,560);
}
);
layerId = "70D15AE9-D38C-43AF-B37D-5B18830B62EE";
shapes = (
{
closed = 1;
nodes = (
(163,0,l),
(286,0,l),
(186,560,l),
(33,560,l)
);
},
{
closed = 1;
nodes = (
(343,560,l),
(223,0,l),
(356,0,l),
(476,560,l)
);
},
{
closed = 1;
nodes = (
(485,0,l),
(618,0,l),
(498,560,l),
(365,560,l)
);
},
{
closed = 1;
nodes = (
(655,560,l),
(555,0,l),
(678,0,l),
(808,560,l)
);
}
);
width = 841;
},
{
anchors = (
{
name = bottom;
pos = (386,0);
},
{
name = top;
pos = (386,560);
}
);
layerId = "B0101270-E9E4-4119-BDB6-6DA172BA76B6";
shapes = (
{
closed = 1;
nodes = (
(188,0,l),
(251,0,l),
(117,560,l),
(38,560,l)
);
},
{
closed = 1;
nodes = (
(344,560,l),
(208,0,l),
(275,0,l),
(411,560,l)
);
},
{
closed = 1;
nodes = (
(496,0,l),
(563,0,l),
(427,560,l),
(360,560,l)
);
},
{
closed = 1;
nodes = (
(654,560,l),
(520,0,l),
(583,0,l),
(733,560,l)
);
}
);
width = 771;
}
);
metricLeft = "=v";
metricRight = "=v";
unicode = 119;
userData = {
KernOnName = w;
};
}
{
color = 6;
glyphname = z;
kernLeft = KO_z;
kernRight = KO_z;
layers = (
{
anchors = (
{
name = bottom;
pos = (262,0);
},
{
name = center;
pos = (262,280);
},
{
name = top;
pos = (262,560);
}
);
layerId = "70D15AE9-D38C-43AF-B37D-5B18830B62EE";
shapes = (
{
closed = 1;
nodes = (
(47,438,l),
(419,438,l),
(482,464,l),
(482,560,l),
(47,560,l)
);
},
{
closed = 1;
nodes = (
(482,464,l),
(482,560,l),
(388,560,l),
(39,96,l),
(133,0,l)
);
},
{
closed = 1;
nodes = (
(485,122,l),
(101,122,l),
(39,96,l),
(39,0,l),
(485,0,l)
);
}
);
width = 524;
},
{
anchors = (
{
name = bottom;
pos = (262,0);
},
{
name = center;
pos = (262,280);
},
{
name = top;
pos = (262,560);
}
);
layerId = "B0101270-E9E4-4119-BDB6-6DA172BA76B6";
shapes = (
{
closed = 1;
nodes = (
(52,498,l),
(414,498,l),
(477,514,l),
(477,560,l),
(52,560,l)
);
},
{
closed = 1;
nodes = (
(477,514,l),
(477,560,l),
(433,560,l),
(44,46,l),
(88,0,l)
);
},
{
closed = 1;
nodes = (
(480,62,l),
(106,62,l),
(44,46,l),
(44,0,l),
(480,0,l)
);
}
);
width = 524;
}
);
unicode = 122;
userData = {
KernOnName = z;
};
}
{
color = 6;
glyphname = braceleft;
kernRight = KO_braceleft;
layers = (
{
layerId = "70D15AE9-D38C-43AF-B37D-5B18830B62EE";
shapes = (
{
closed = 1;
nodes = (
(343,-172,l),
(343,-92,l),
(316,-92,ls),
(239,-92,o),
(232,-36,o),
(232,83,cs),
(232,208,o),
(195,264,o),
(128,272,c),
(195,280,o),
(232,336,o),
(232,461,cs),
(232,580,o),
(239,636,o),
(316,636,cs),
(343,636,l),
(343,716,l),
(316,716,ls),
(151,716,o),
(111,616,o),
(111,488,cs),
(111,401,o),
(91,329,o),
(30,319,c),
(30,225,l),
(91,215,o),
(111,143,o),
(111,56,cs),
(111,-72,o),
(151,-172,o),
(316,-172,cs)
);
}
);
width = 378;
},
{
layerId = "B0101270-E9E4-4119-BDB6-6DA172BA76B6";
shapes = (
{
closed = 1;
nodes = (
(348,-172,l),
(348,-118,l),
(339,-118,ls),
(228,-118,o),
(202,-59,o),
(202,83,cs),
(202,208,o),
(165,264,o),
(113,272,c),
(165,280,o),
(202,336,o),
(202,461,cs),
(202,603,o),
(228,662,o),
(339,662,cs),
(348,662,l),
(348,716,l),
(339,716,ls),
(174,716,o),
(134,616,o),
(134,488,cs),
(134,384,o),
(114,315,o),
(35,305,c),
(35,238,l),
(114,228,o),
(134,160,o),
(134,56,cs),
(134,-72,o),
(174,-172,o),
(339,-172,cs)
);
}
);
width = 388;
},
{
associatedMasterId = "B0101270-E9E4-4119-BDB6-6DA172BA76B6";
layerId = "2157D86E-83C0-4619-9E6E-E64A35C4F515";
name = "2 Sep 25 at 13:54";
shapes = (
{
closed = 1;
nodes = (
(176,716,o),
(136,616,o),
(136,488,cs),
(136,381,o),
(116,313,o),
(35,303,c),
(35,271,l),
(96,271,ls),
(153,271,o),
(197,325,o),
(197,461,cs),
(197,606,o),
(226,666,o),
(341,666,cs),
(348,666,l),
(348,716,l),
(341,716,ls)
);
},
{
closed = 1;
nodes = (
(348,-172,l),
(348,-122,l),
(341,-122,ls),
(226,-122,o),
(197,-62,o),
(197,83,cs),
(197,219,o),
(153,273,o),
(96,273,cs),
(35,273,l),
(35,240,l),
(116,230,o),
(136,163,o),
(136,56,cs),
(136,-72,o),
(176,-172,o),
(341,-172,cs)
);
}
);
width = 388;
},
{
associatedMasterId = "70D15AE9-D38C-43AF-B37D-5B18830B62EE";
layerId = "D807AA5C-BDEA-4743-B24C-B639ABBC075C";
name = "2 Sep 25 at 13:54";
shapes = (
{
closed = 1;
nodes = (
(151,716,o),
(111,616,o),
(111,488,cs),
(111,401,o),
(91,329,o),
(30,319,c),
(30,271,l),
(111,271,ls),
(188,271,o),
(232,325,o),
(232,461,cs),
(232,580,o),
(239,636,o),
(316,636,cs),
(343,636,l),
(343,716,l),
(316,716,ls)
);
},
{
closed = 1;
nodes = (
(343,-172,l),
(343,-92,l),
(316,-92,ls),
(239,-92,o),
(232,-36,o),
(232,83,cs),
(232,219,o),
(188,273,o),
(111,273,cs),
(30,273,l),
(30,225,l),
(91,215,o),
(111,143,o),
(111,56,cs),
(111,-72,o),
(151,-172,o),
(316,-172,cs)
);
}
);
width = 378;
}
);
metricRight = "=bracketleft";
unicode = 123;
}
{
color = 6;
glyphname = bar;
layers = (
{
layerId = "70D15AE9-D38C-43AF-B37D-5B18830B62EE";
shapes = (
{
closed = 1;
nodes = (
(67,-50,l),
(212,-50,l),
(212,750,l),
(67,750,l)
);
}
);
width = 279;
},
{
layerId = "B0101270-E9E4-4119-BDB6-6DA172BA76B6";
shapes = (
{
closed = 1;
nodes = (
(72,-50,l),
(145,-50,l),
(145,750,l),
(72,750,l)
);
}
);
width = 217;
}
);
metricRight = "=H";
unicode = 124;
}
{
color = 6;
glyphname = asciitilde;
kernLeft = KO_asciitilde;
kernRight = KO_asciitilde;
layers = (
{
layerId = "70D15AE9-D38C-43AF-B37D-5B18830B62EE";
shapes = (
{
attr = {
fillColor = (217,255);
};
closed = 1;
nodes = (
(277,316,o),
(322,248,o),
(413,248,cs),
(471,248,o),
(559,293,o),
(559,434,c),
(432,434,l),
(432,404,o),
(414,381,o),
(391,381,cs),
(339,381,o),
(294,446,o),
(202,446,cs),
(141,446,o),
(55,403,o),
(55,262,c),
(182,262,l),
(182,291,o),
(202,316,o),
(226,316,cs)
);
}
);
width = 614;
},
{
layerId = "B0101270-E9E4-4119-BDB6-6DA172BA76B6";
shapes = (
{
attr = {
fillColor = (217,255);
};
closed = 1;
nodes = (
(247,337,o),
(300,253,o),
(391,253,cs),
(448,253,o),
(514,281,o),
(514,397,c),
(445,397,l),
(445,351,o),
(433,320,o),
(385,320,cs),
(328,320,o),
(274,401,o),
(182,401,cs),
(121,401,o),
(60,374,o),
(60,259,c),
(129,259,l),
(129,312,o),
(149,337,o),
(190,337,cs)
);
}
);
width = 574;
}
);
metricRight = "=hyphen";
unicode = 126;
}
{
color = 6;
glyphname = cent;
layers = (
{
layerId = "70D15AE9-D38C-43AF-B37D-5B18830B62EE";
shapes = (
{
closed = 1;
nodes = (
(484,-16,o),
(589,90,o),
(589,235,c),
(440,235,l),
(440,171,o),
(406,114,o),
(326,114,cs),
(223,114,o),
(186,186,o),
(186,279,cs),
(186,373,o),
(223,446,o),
(326,446,cs),
(405,446,o),
(436,393,o),
(436,340,c),
(587,340,l),
(587,463,o),
(478,576,o),
(326,576,cs),
(153,576,o),
(40,453,o),
(40,279,cs),
(40,106,o),
(153,-16,o),
(326,-16,cs)
);
},
{
closed = 1;
nodes = (
(365,-50,l),
(365,610,l),
(272,610,l),
(272,-50,l)
);
}
);
width = 630;
},
{
layerId = "B0101270-E9E4-4119-BDB6-6DA172BA76B6";
shapes = (
{
closed = 1;
nodes = (
(489,-16,o),
(584,90,o),
(594,235,c),
(520,235,l),
(510,141,o),
(461,52,o),
(331,52,cs),
(198,52,o),
(121,146,o),
(121,279,cs),
(121,413,o),
(198,508,o),
(331,508,cs),
(450,508,o),
(506,423,o),
(516,340,c),
(592,340,l),
(582,463,o),
(483,576,o),
(331,576,cs),
(158,576,o),
(45,453,o),
(45,279,cs),
(45,106,o),
(158,-16,o),
(331,-16,cs)
);
},
{
closed = 1;
nodes = (
(355,-50,l),
(355,610,l),
(292,610,l),
(292,-50,l)
);
}
);
width = 640;
}
);
unicode = 162;
}
{
color = 6;
glyphname = sterling;
layers = (
{
layerId = "70D15AE9-D38C-43AF-B37D-5B18830B62EE";
shapes = (
{
closed = 1;
nodes = (
(235,94,o),
(286,150,o),
(286,250,cs),
(286,362,o),
(232,425,o),
(232,501,cs),
(232,548,o),
(256,584,o),
(317,584,cs),
(384,584,o),
(414,544,o),
(420,478,c),
(572,478,l),
(572,619,o),
(466,716,o),
(317,716,cs),
(169,716,o),
(81,633,o),
(81,501,cs),
(81,392,o),
(147,332,o),
(147,249,cs),
(147,188,o),
(112,126,o),
(69,87,c),
(127,39,l)
);
},
{
closed = 1;
nodes = (
(562,0,l),
(562,126,l),
(183,126,l),
(69,87,l),
(69,0,l)
);
},
{
closed = 1;
nodes = (
(449,293,l),
(449,393,l),
(67,393,l),
(67,293,l)
);
}
);
width = 639;
},
{
layerId = "B0101270-E9E4-4119-BDB6-6DA172BA76B6";
shapes = (
{
closed = 1;
nodes = (
(213,90,o),
(248,146,o),
(248,223,cs),
(248,337,o),
(166,419,o),
(166,511,cs),
(166,595,o),
(228,644,o),
(309,644,cs),
(414,644,o),
(456,574,o),
(462,478,c),
(539,478,l),
(539,619,o),
(444,716,o),
(314,716,cs),
(164,716,o),
(88,619,o),
(88,511,cs),
(88,384,o),
(171,337,o),
(171,222,cs),
(171,164,o),
(129,100,o),
(83,47,c),
(144,23,l)
);
},
{
closed = 1;
nodes = (
(531,0,l),
(531,68,l),
(156,68,l),
(82,47,l),
(82,0,l)
);
},
{
closed = 1;
nodes = (
(447,302,l),
(447,368,l),
(72,368,l),
(72,302,l)
);
}
);
width = 611;
},
{
associatedMasterId = "B0101270-E9E4-4119-BDB6-6DA172BA76B6";
layerId = "68B78B52-D889-463F-B9C2-266B1D17E762";
name = "2 Sep 25 at 13:44";
shapes = (
{
closed = 1;
nodes = (
(217,90,o),
(252,146,o),
(252,223,cs),
(252,337,o),
(150,419,o),
(150,511,cs),
(150,595,o),
(212,644,o),
(293,644,cs),
(398,644,o),
(450,574,o),
(456,478,c),
(533,478,l),
(533,619,o),
(428,716,o),
(298,716,cs),
(148,716,o),
(72,619,o),
(72,511,cs),
(72,384,o),
(175,337,o),
(175,222,cs),
(175,164,o),
(133,100,o),
(97,47,c),
(158,23,l)
);
},
{
closed = 1;
nodes = (
(535,0,l),
(535,68,l),
(170,68,l),
(96,47,l),
(96,0,l)
);
},
{
closed = 1;
nodes = (
(450,276,l),
(450,344,l),
(96,344,l),
(96,276,l)
);
}
);
width = 607;
},
{
associatedMasterId = "70D15AE9-D38C-43AF-B37D-5B18830B62EE";
layerId = "370D3727-E305-41C2-878C-AF7FF57941E3";
name = "2 Sep 25 at 14:19";
shapes = (
{
closed = 1;
nodes = (
(235,94,o),
(286,150,o),
(286,250,cs),
(286,362,o),
(222,425,o),
(222,501,cs),
(222,548,o),
(246,584,o),
(312,584,cs),
(374,584,o),
(404,544,o),
(410,478,c),
(562,478,l),
(562,619,o),
(444,716,o),
(317,716,cs),
(159,716,o),
(71,633,o),
(71,501,cs),
(71,392,o),
(147,332,o),
(147,249,cs),
(147,188,o),
(112,126,o),
(69,87,c),
(127,39,l)
);
},
{
closed = 1;
nodes = (
(562,0,l),
(562,126,l),
(183,126,l),
(69,87,l),
(69,0,l)
);
},
{
closed = 1;
nodes = (
(452,253,l),
(452,379,l),
(67,379,l),
(67,253,l)
);
}
);
width = 629;
}
);
metricRight = "=H";
unicode = 163;
}
{
color = 6;
glyphname = currency;
layers = (
{
layerId = "70D15AE9-D38C-43AF-B37D-5B18830B62EE";
shapes = (
{
closed = 1;
nodes = (
(323,172,o),
(384,234,o),
(384,312,cs),
(384,391,o),
(322,453,o),
(243,453,cs),
(165,453,o),
(103,392,o),
(103,313,cs),
(103,234,o),
(165,172,o),
(244,172,cs)
);
},
{
closed = 1;
nodes = (
(202,182,l),
(113,271,l),
(30,188,l),
(119,99,l)
);
},
{
closed = 1;
nodes = (
(202,442,l),
(119,525,l),
(30,436,l),
(113,353,l)
);
},
{
closed = 1;
nodes = (
(222,272,o),
(203,291,o),
(203,311,cs),
(203,334,o),
(223,353,o),
(244,353,cs),
(265,353,o),
(284,334,o),
(284,313,cs),
(284,292,o),
(265,272,o),
(242,272,cs)
);
},
{
closed = 1;
nodes = (
(456,188,l),
(373,271,l),
(284,182,l),
(367,99,l)
);
},
{
closed = 1;
nodes = (
(456,436,l),
(367,525,l),
(284,442,l),
(373,353,l)
);
}
);
width = 486;
},
{
layerId = "B0101270-E9E4-4119-BDB6-6DA172BA76B6";
shapes = (
{
closed = 1;
nodes = (
(307,172,o),
(368,234,o),
(368,312,cs),
(368,391,o),
(306,453,o),
(227,453,cs),
(149,453,o),
(87,392,o),
(87,313,cs),
(87,234,o),
(149,172,o),
(228,172,cs)
);
},
{
closed = 1;
nodes = (
(165,203,l),
(118,250,l),
(35,167,l),
(82,120,l)
);
},
{
closed = 1;
nodes = (
(165,421,l),
(82,504,l),
(35,457,l),
(118,374,l)
);
},
{
closed = 1;
nodes = (
(181,236,o),
(151,272,o),
(151,312,cs),
(151,353,o),
(182,388,o),
(229,388,cs),
(275,388,o),
(303,354,o),
(303,314,cs),
(303,273,o),
(274,236,o),
(227,236,cs)
);
},
{
closed = 1;
nodes = (
(419,167,l),
(336,250,l),
(289,203,l),
(372,120,l)
);
},
{
closed = 1;
nodes = (
(419,457,l),
(372,504,l),
(289,421,l),
(336,374,l)
);
}
);
width = 454;
}
);
unicode = 164;
}
{
color = 6;
glyphname = copyright;
kernLeft = KO_at;
layers = (
{
layerId = "70D15AE9-D38C-43AF-B37D-5B18830B62EE";
shapes = (
{
closed = 1;
nodes = (
(611,-16,o),
(775,148,o),
(775,350,cs),
(775,552,o),
(611,716,o),
(409,716,cs),
(207,716,o),
(43,552,o),
(43,350,cs),
(43,148,o),
(207,-16,o),
(409,-16,cs)
);
},
{
closed = 1;
nodes = (
(269,93,o),
(157,207,o),
(157,350,cs),
(157,493,o),
(269,607,o),
(409,607,cs),
(549,607,o),
(661,493,o),
(661,350,cs),
(661,207,o),
(549,93,o),
(409,93,cs)
);
},
{
closed = 1;
nodes = (
(447,324,l),
(447,290,o),
(432,272,o),
(410,272,cs),
(378,272,o),
(357,294,o),
(357,349,cs),
(357,405,o),
(378,428,o),
(410,428,cs),
(431,428,o),
(445,412,o),
(445,385,c),
(568,385,l),
(568,458,o),
(504,525,o),
(410,525,cs),
(302,525,o),
(235,452,o),
(235,349,cs),
(235,248,o),
(302,175,o),
(410,175,cs),
(507,175,o),
(570,238,o),
(570,324,c)
);
}
);
width = 818;
},
{
layerId = "B0101270-E9E4-4119-BDB6-6DA172BA76B6";
shapes = (
{
closed = 1;
nodes = (
(624,-16,o),
(780,142,o),
(780,350,cs),
(780,558,o),
(624,716,o),
(414,716,cs),
(204,716,o),
(48,558,o),
(48,350,cs),
(48,142,o),
(204,-16,o),
(414,-16,cs)
);
},
{
closed = 1;
nodes = (
(249,50,o),
(120,180,o),
(120,350,cs),
(120,520,o),
(249,650,o),
(414,650,cs),
(579,650,o),
(708,520,o),
(708,350,cs),
(708,180,o),
(579,50,o),
(414,50,cs)
);
},
{
closed = 1;
nodes = (
(535,317,l),
(528,254,o),
(502,201,o),
(415,201,cs),
(326,201,o),
(279,256,o),
(279,349,cs),
(279,443,o),
(326,499,o),
(415,499,cs),
(493,499,o),
(525,450,o),
(532,395,c),
(609,395,l),
(602,486,o),
(528,570,o),
(415,570,cs),
(287,570,o),
(203,479,o),
(203,349,cs),
(203,221,o),
(287,130,o),
(415,130,cs),
(532,130,o),
(603,209,o),
(610,317,c)
);
}
);
width = 828;
}
);
metricRight = "=O";
unicode = 169;
}
{
color = 6;
glyphname = guillemetleft;
kernLeft = KO_guillemetleft;
kernRight = KO_guillemetleft;
layers = (
{
layerId = "70D15AE9-D38C-43AF-B37D-5B18830B62EE";
shapes = (
{
closed = 1;
nodes = (
(40,277,l),
(183,49,l),
(345,49,l),
(202,277,l),
(345,505,l),
(183,505,l)
);
},
{
closed = 1;
nodes = (
(281,277,l),
(424,49,l),
(586,49,l),
(443,277,l),
(586,505,l),
(424,505,l)
);
}
);
width = 631;
},
{
layerId = "B0101270-E9E4-4119-BDB6-6DA172BA76B6";
shapes = (
{
closed = 1;
nodes = (
(45,277,l),
(188,49,l),
(270,49,l),
(127,277,l),
(270,505,l),
(188,505,l)
);
},
{
closed = 1;
nodes = (
(216,277,l),
(359,49,l),
(441,49,l),
(298,277,l),
(441,505,l),
(359,505,l)
);
}
);
width = 491;
}
);
unicode = 171;
}
{
color = 6;
glyphname = logicalnot;
kernLeft = KO_plus;
kernRight = KO_logicalnot;
layers = (
{
layerId = "70D15AE9-D38C-43AF-B37D-5B18830B62EE";
shapes = (
{
closed = 1;
nodes = (
(56,309,l),
(546,309,l),
(546,431,l),
(56,431,l)
);
},
{
closed = 1;
nodes = (
(546,168,l),
(546,403,l),
(424,403,l),
(424,168,l)
);
}
);
width = 601;
},
{
layerId = "B0101270-E9E4-4119-BDB6-6DA172BA76B6";
shapes = (
{
closed = 1;
nodes = (
(61,335,l),
(551,335,l),
(551,401,l),
(61,401,l)
);
},
{
closed = 1;
nodes = (
(551,168,l),
(551,383,l),
(485,383,l),
(485,168,l)
);
}
);
width = 611;
}
);
unicode = 172;
}
{
color = 6;
glyphname = degree;
kernRight = KO_degree;
layers = (
{
layerId = "70D15AE9-D38C-43AF-B37D-5B18830B62EE";
shapes = (
{
closed = 1;
nodes = (
(263,435,o),
(327,499,o),
(327,575,cs),
(327,652,o),
(263,716,o),
(186,716,cs),
(109,716,o),
(45,652,o),
(45,575,cs),
(45,499,o),
(109,435,o),
(186,435,cs)
);
},
{
closed = 1;
nodes = (
(163,535,o),
(146,554,o),
(146,575,cs),
(146,597,o),
(163,616,o),
(186,616,cs),
(209,616,o),
(226,597,o),
(226,575,cs),
(226,554,o),
(209,535,o),
(186,535,cs)
);
}
);
width = 372;
},
{
layerId = "B0101270-E9E4-4119-BDB6-6DA172BA76B6";
shapes = (
{
closed = 1;
nodes = (
(268,435,o),
(332,499,o),
(332,575,cs),
(332,652,o),
(268,716,o),
(191,716,cs),
(114,716,o),
(50,652,o),
(50,575,cs),
(50,499,o),
(114,435,o),
(191,435,cs)
);
},
{
closed = 1;
nodes = (
(148,499,o),
(116,534,o),
(116,575,cs),
(116,617,o),
(148,652,o),
(191,652,cs),
(234,652,o),
(266,617,o),
(266,575,cs),
(266,534,o),
(234,499,o),
(191,499,cs)
);
}
);
width = 382;
}
);
unicode = 176;
}
{
color = 6;
glyphname = plusminus;
kernRight = KO_plusminus;
layers = (
{
layerId = "70D15AE9-D38C-43AF-B37D-5B18830B62EE";
shapes = (
{
closed = 1;
nodes = (
(56,194,l),
(56,72,l),
(615,72,l),
(615,194,l)
);
},
{
closed = 1;
nodes = (
(56,362,l),
(615,362,l),
(615,484,l),
(56,484,l)
);
},
{
closed = 1;
nodes = (
(274,615,l),
(274,230,l),
(396,230,l),
(396,615,l)
);
}
);
width = 671;
},
{
layerId = "B0101270-E9E4-4119-BDB6-6DA172BA76B6";
shapes = (
{
closed = 1;
nodes = (
(61,167,l),
(61,101,l),
(620,101,l),
(620,167,l)
);
},
{
closed = 1;
nodes = (
(61,391,l),
(620,391,l),
(620,455,l),
(61,455,l)
);
},
{
closed = 1;
nodes = (
(307,615,l),
(307,230,l),
(373,230,l),
(373,615,l)
);
}
);
width = 681;
}
);
unicode = 177;
}
{
color = 6;
glyphname = ordmasculine;
layers = (
{
layerId = "70D15AE9-D38C-43AF-B37D-5B18830B62EE";
shapes = (
{
closed = 1;
nodes = (
(320,360,o),
(388,433,o),
(388,537,cs),
(388,642,o),
(320,716,o),
(217,716,cs),
(113,716,o),
(45,642,o),
(45,537,cs),
(45,433,o),
(113,360,o),
(217,360,cs)
);
},
{
closed = 1;
nodes = (
(164,449,o),
(147,491,o),
(147,537,cs),
(147,584,o),
(164,627,o),
(217,627,cs),
(270,627,o),
(287,584,o),
(287,537,cs),
(287,492,o),
(270,449,o),
(217,449,cs)
);
}
);
width = 433;
},
{
layerId = "B0101270-E9E4-4119-BDB6-6DA172BA76B6";
shapes = (
{
closed = 1;
nodes = (
(325,360,o),
(393,433,o),
(393,537,cs),
(393,642,o),
(325,716,o),
(222,716,cs),
(118,716,o),
(50,642,o),
(50,537,cs),
(50,433,o),
(118,360,o),
(222,360,cs)
);
},
{
closed = 1;
nodes = (
(155,416,o),
(113,464,o),
(113,537,cs),
(113,612,o),
(155,660,o),
(222,660,cs),
(289,660,o),
(330,611,o),
(330,537,cs),
(330,464,o),
(288,416,o),
(222,416,cs)
);
}
);
width = 443;
}
);
unicode = 186;
}
{
color = 6;
glyphname = multiply;
kernLeft = KO_multiply;
kernRight = KO_multiply;
layers = (
{
layerId = "70D15AE9-D38C-43AF-B37D-5B18830B62EE";
shapes = (
{
closed = 1;
nodes = (
(45,500,l),
(392,153,l),
(478,240,l),
(131,587,l)
);
},
{
closed = 1;
nodes = (
(392,586,l),
(45,240,l),
(131,153,l),
(479,501,l)
);
}
);
width = 524;
},
{
background = {
shapes = (
{
closed = 1;
nodes = (
(123,520,l),
(470,174,l),
(516,219,l),
(168,567,l)
);
},
{
closed = 1;
nodes = (
(470,566,l),
(123,219,l),
(169,174,l),
(516,521,l)
);
}
);
};
layerId = "B0101270-E9E4-4119-BDB6-6DA172BA76B6";
shapes = (
{
closed = 1;
nodes = (
(122,519,l),
(469,173,l),
(517,220,l),
(169,568,l)
);
},
{
closed = 1;
nodes = (
(469,567,l),
(122,220,l),
(170,173,l),
(517,520,l)
);
}
);
width = 640;
}
);
unicode = 215;
}
{
color = 6;
glyphname = oslash;
kernLeft = KO_o;
kernRight = KO_o;
layers = (
{
layerId = "70D15AE9-D38C-43AF-B37D-5B18830B62EE";
shapes = (
{
closed = 1;
nodes = (
(499,-16,o),
(612,106,o),
(612,279,cs),
(612,453,o),
(499,576,o),
(326,576,cs),
(153,576,o),
(40,453,o),
(40,279,cs),
(40,106,o),
(153,-16,o),
(326,-16,cs)
);
},
{
closed = 1;
nodes = (
(229,112,o),
(186,186,o),
(186,279,cs),
(186,373,o),
(229,448,o),
(326,448,cs),
(423,448,o),
(466,373,o),
(466,279,cs),
(466,186,o),
(423,112,o),
(326,112,cs)
);
},
{
closed = 1;
nodes = (
(562,516,l),
(477,576,l),
(100,43,l),
(185,-17,l)
);
}
);
width = 652;
},
{
layerId = "B0101270-E9E4-4119-BDB6-6DA172BA76B6";
shapes = (
{
closed = 1;
nodes = (
(504,-16,o),
(617,106,o),
(617,279,cs),
(617,453,o),
(504,576,o),
(331,576,cs),
(158,576,o),
(45,453,o),
(45,279,cs),
(45,106,o),
(158,-16,o),
(331,-16,cs)
);
},
{
closed = 1;
nodes = (
(209,52,o),
(121,136,o),
(121,279,cs),
(121,423,o),
(209,508,o),
(331,508,cs),
(453,508,o),
(541,423,o),
(541,279,cs),
(541,136,o),
(453,52,o),
(331,52,cs)
);
},
{
closed = 1;
nodes = (
(561,534,l),
(500,577,l),
(110,27,l),
(171,-16,l)
);
}
);
width = 662;
}
);
metricRight = "=o";
unicode = 248;
}
{
color = 6;
glyphname = dcroat;
kernLeft = KO_d;
kernRight = KO_dcroat;
layers = (
{
layerId = "70D15AE9-D38C-43AF-B37D-5B18830B62EE";
shapes = (
{
closed = 1;
nodes = (
(370,-16,o),
(420,13,o),
(452,61,c),
(452,498,l),
(418,548,o),
(367,576,o),
(292,576,cs),
(133,576,o),
(40,453,o),
(40,279,cs),
(40,106,o),
(133,-16,o),
(292,-16,cs)
);
},
{
closed = 1;
nodes = (
(230,112,o),
(186,186,o),
(186,279,cs),
(186,373,o),
(230,448,o),
(317,448,cs),
(409,448,o),
(452,373,o),
(452,279,cs),
(452,186,o),
(409,112,o),
(317,112,cs)
);
},
{
closed = 1;
nodes = (
(595,0,l),
(595,750,l),
(452,750,l),
(452,0,l)
);
},
{
closed = 1;
nodes = (
(332,604,l),
(675,604,l),
(675,700,l),
(332,700,l)
);
}
);
width = 733;
},
{
layerId = "B0101270-E9E4-4119-BDB6-6DA172BA76B6";
shapes = (
{
closed = 1;
nodes = (
(397,-16,o),
(463,34,o),
(497,108,c),
(497,450,l),
(461,527,o),
(394,576,o),
(297,576,cs),
(148,576,o),
(45,453,o),
(45,279,cs),
(45,106,o),
(148,-16,o),
(297,-16,cs)
);
},
{
closed = 1;
nodes = (
(195,52,o),
(121,136,o),
(121,279,cs),
(121,423,o),
(195,508,o),
(302,508,cs),
(431,508,o),
(497,413,o),
(497,279,cs),
(497,146,o),
(431,52,o),
(302,52,cs)
);
},
{
closed = 1;
nodes = (
(570,0,l),
(570,750,l),
(497,750,l),
(497,0,l)
);
},
{
closed = 1;
nodes = (
(347,624,l),
(650,624,l),
(650,680,l),
(347,680,l)
);
}
);
width = 713;
},
{
associatedMasterId = "B0101270-E9E4-4119-BDB6-6DA172BA76B6";
layerId = "818FE034-074C-456D-918B-41E491E13619";
name = "1 Sep 25 at 15:40";
shapes = (
{
closed = 1;
nodes = (
(397,-16,o),
(463,34,o),
(497,108,c),
(497,450,l),
(461,527,o),
(394,576,o),
(297,576,cs),
(148,576,o),
(45,453,o),
(45,279,cs),
(45,106,o),
(148,-16,o),
(297,-16,cs)
);
},
{
closed = 1;
nodes = (
(195,52,o),
(121,136,o),
(121,279,cs),
(121,423,o),
(195,508,o),
(302,508,cs),
(431,508,o),
(497,413,o),
(497,279,cs),
(497,146,o),
(431,52,o),
(302,52,cs)
);
},
{
closed = 1;
nodes = (
(570,0,l),
(570,750,l),
(497,750,l),
(497,0,l)
);
},
{
closed = 1;
nodes = (
(397,624,l),
(650,624,l),
(650,680,l),
(397,680,l)
);
}
);
width = 713;
}
);
metricRight = "=d-5";
unicode = 273;
userData = {
KernOnName = dcroat;
};
}
{
color = 6;
glyphname = idotless;
kernLeft = KO_p;
kernRight = KO_q;
layers = (
{
anchors = (
{
name = bottom;
pos = (135,0);
},
{
name = ogonek;
pos = (206,0);
},
{
name = top;
pos = (135,560);
}
);
layerId = "70D15AE9-D38C-43AF-B37D-5B18830B62EE";
shapes = (
{
closed = 1;
nodes = (
(63,0,l),
(206,0,l),
(206,560,l),
(63,560,l)
);
}
);
width = 269;
},
{
anchors = (
{
name = bottom;
pos = (105,0);
},
{
name = ogonek;
pos = (141,0);
},
{
name = top;
pos = (105,560);
}
);
layerId = "B0101270-E9E4-4119-BDB6-6DA172BA76B6";
shapes = (
{
closed = 1;
nodes = (
(68,0,l),
(141,0,l),
(141,560,l),
(68,560,l)
);
}
);
width = 209;
}
);
metricRight = "=i";
unicode = 305;
}
{
color = 6;
glyphname = OE;
kernLeft = KO_O;
kernRight = KO_E;
layers = (
{
layerId = "70D15AE9-D38C-43AF-B37D-5B18830B62EE";
shapes = (
{
closed = 1;
nodes = (
(611,-16,o),
(654,148,o),
(654,351,cs),
(654,552,o),
(611,716,o),
(389,716,cs),
(166,716,o),
(43,552,o),
(43,351,cs),
(43,148,o),
(166,-16,o),
(389,-16,cs)
);
},
{
closed = 1;
nodes = (
(252,116,o),
(194,231,o),
(194,351,cs),
(194,469,o),
(252,584,o),
(389,584,cs),
(525,584,o),
(583,469,o),
(583,351,cs),
(583,231,o),
(525,116,o),
(389,116,cs)
);
},
{
closed = 1;
nodes = (
(1055,0,l),
(1055,126,l),
(729,126,l),
(729,0,l)
);
},
{
closed = 1;
nodes = (
(729,0,l),
(729,700,l),
(584,700,l),
(584,0,l)
);
},
{
closed = 1;
nodes = (
(1011,289,l),
(1011,415,l),
(729,415,l),
(729,289,l)
);
},
{
closed = 1;
nodes = (
(1051,574,l),
(1051,700,l),
(639,700,l),
(639,574,l)
);
}
);
width = 1112;
},
{
layerId = "B0101270-E9E4-4119-BDB6-6DA172BA76B6";
shapes = (
{
closed = 1;
nodes = (
(616,-16,o),
(699,148,o),
(699,351,cs),
(699,552,o),
(616,716,o),
(394,716,cs),
(171,716,o),
(48,552,o),
(48,351,cs),
(48,148,o),
(171,-16,o),
(394,-16,cs)
);
},
{
closed = 1;
nodes = (
(218,56,o),
(126,201,o),
(126,351,cs),
(126,499,o),
(218,644,o),
(394,644,cs),
(570,644,o),
(651,499,o),
(651,351,cs),
(651,201,o),
(570,56,o),
(394,56,cs)
);
},
{
closed = 1;
nodes = (
(1112,0,l),
(1112,68,l),
(698,68,l),
(698,0,l)
);
},
{
closed = 1;
nodes = (
(726,0,l),
(726,700,l),
(651,700,l),
(651,0,l)
);
},
{
closed = 1;
nodes = (
(1068,318,l),
(1068,386,l),
(675,386,l),
(675,318,l)
);
},
{
closed = 1;
nodes = (
(1108,632,l),
(1108,700,l),
(706,700,l),
(706,632,l)
);
}
);
width = 1174;
}
);
metricRight = "=E";
unicode = 338;
}
{
color = 3;
glyphname = Tcedilla;
kernLeft = KO_T;
kernRight = KO_Tcedilla;
layers = (
{
layerId = "70D15AE9-D38C-43AF-B37D-5B18830B62EE";
shapes = (
{
ref = T;
},
{
alignment = -1;
pos = (196,0);
ref = cedillacomb;
}
);
width = 651;
},
{
layerId = "B0101270-E9E4-4119-BDB6-6DA172BA76B6";
shapes = (
{
ref = T;
},
{
alignment = -1;
pos = (196,0);
ref = cedillacomb;
}
);
width = 601;
},
{
anchors = (
{
name = bottom;
pos = (353,-243);
}
);
associatedMasterId = "B0101270-E9E4-4119-BDB6-6DA172BA76B6";
layerId = "A08363AB-61AC-46F1-80A8-6CE378BC570A";
name = "1 Sep 25 at 15:36";
shapes = (
{
ref = T;
},
{
closed = 1;
nodes = (
(258,-89,l),
(333,-89,l),
(333,10,l),
(258,10,l)
);
},
{
closed = 1;
nodes = (
(335,-89,o),
(369,-98,o),
(369,-134,cs),
(369,-170,o),
(335,-179,o),
(313,-179,c),
(241,-179,l),
(241,-233,l),
(315,-233,l),
(383,-233,o),
(429,-190,o),
(429,-134,cs),
(429,-78,o),
(383,-35,o),
(313,-35,c),
(313,-89,l)
);
}
);
width = 591;
}
);
unicode = 354;
}
{
color = 6;
glyphname = Schwa;
kernRight = KO_O;
layers = (
{
layerId = "70D15AE9-D38C-43AF-B37D-5B18830B62EE";
shapes = (
{
closed = 1;
nodes = (
(577,-16,o),
(716,136,o),
(716,351,cs),
(716,565,o),
(577,716,o),
(363,716,cs),
(195,716,o),
(75,618,o),
(46,476,c),
(202,476,l),
(215,529,o),
(266,590,o),
(363,590,cs),
(510,590,o),
(565,487,o),
(565,351,cs),
(565,215,o),
(510,110,o),
(363,110,cs),
(232,110,o),
(182,232,o),
(195,308,c),
(148,284,l),
(620,284,l),
(620,410,l),
(48,410,l),
(10,138,o),
(175,-16,o),
(363,-16,cs)
);
}
);
width = 759;
},
{
layerId = "B0101270-E9E4-4119-BDB6-6DA172BA76B6";
shapes = (
{
closed = 1;
nodes = (
(580,-16,o),
(719,136,o),
(719,351,cs),
(719,565,o),
(580,716,o),
(366,716,cs),
(198,716,o),
(78,618,o),
(49,476,c),
(135,476,l),
(148,549,o),
(229,644,o),
(366,644,cs),
(533,644,o),
(641,527,o),
(641,351,cs),
(641,175,o),
(533,55,o),
(366,55,cs),
(209,55,o),
(105,172,o),
(129,355,c),
(81,318,l),
(675,318,l),
(675,386,l),
(51,386,l),
(25,128,o),
(183,-16,o),
(366,-16,cs)
);
}
);
width = 767;
}
);
metricRight = "=O";
unicode = 399;
}
{
color = 6;
glyphname = jdotless;
kernLeft = KO_j;
layers = (
{
anchors = (
{
name = bottom;
pos = (134,-200);
},
{
name = top;
pos = (136,560);
}
);
layerId = "70D15AE9-D38C-43AF-B37D-5B18830B62EE";
shapes = (
{
closed = 1;
nodes = (
(67,560,l),
(67,-28,l),
(67,-61,o),
(49,-78,o),
(13,-78,c),
(-57,-78,l),
(-57,-200,l),
(14,-200,l),
(145,-200,o),
(210,-143,o),
(210,-28,c),
(210,560,l)
);
}
);
width = 283;
},
{
anchors = (
{
name = bottom;
pos = (159,-200);
},
{
name = top;
pos = (163,560);
}
);
layerId = "B0101270-E9E4-4119-BDB6-6DA172BA76B6";
shapes = (
{
closed = 1;
nodes = (
(127,560,l),
(127,-68,l),
(127,-122,o),
(108,-138,o),
(68,-138,c),
(-32,-138,l),
(-32,-200,l),
(69,-200,l),
(160,-200,o),
(200,-158,o),
(200,-68,c),
(200,560,l)
);
}
);
width = 278;
}
);
metricRight = "=i+10";
unicode = 567;
}
{
color = 6;
glyphname = schwa;
kernLeft = KO_d;
kernRight = KO_o;
layers = (
{
layerId = "70D15AE9-D38C-43AF-B37D-5B18830B62EE";
shapes = (
{
closed = 1;
nodes = (
(504,328,l),
(44,328,l),
(44,212,l),
(504,212,l)
);
},
{
closed = 1;
nodes = (
(193,382,l),
(208,420,o),
(245,448,o),
(299,448,cs),
(402,448,o),
(439,374,o),
(439,281,cs),
(439,187,o),
(402,112,o),
(299,112,cs),
(220,112,o),
(186,167,o),
(186,220,c),
(44,328,l),
(13,109,o),
(147,-16,o),
(299,-16,cs),
(472,-16,o),
(585,107,o),
(585,281,cs),
(585,454,o),
(472,576,o),
(299,576,cs),
(163,576,o),
(66,497,o),
(42,382,c)
);
}
);
width = 625;
},
{
layerId = "B0101270-E9E4-4119-BDB6-6DA172BA76B6";
shapes = (
{
closed = 1;
nodes = (
(546,305,l),
(46,305,l),
(61,239,l),
(546,239,l)
);
},
{
closed = 1;
nodes = (
(125,383,l),
(147,453,o),
(200,508,o),
(302,508,cs),
(435,508,o),
(512,414,o),
(512,281,cs),
(512,147,o),
(435,52,o),
(302,52,cs),
(183,52,o),
(113,145,o),
(113,281,c),
(46,305,l),
(32,102,o),
(150,-16,o),
(302,-16,cs),
(475,-16,o),
(588,107,o),
(588,281,cs),
(588,454,o),
(475,576,o),
(302,576,cs),
(166,576,o),
(77,498,o),
(48,383,c)
);
}
);
width = 633;
}
);
metricRight = "=|e";
unicode = 601;
}
{
color = 6;
glyphname = circumflexcomb;
layers = (
{
anchors = (
{
name = _top;
pos = (192,560);
},
{
name = top;
pos = (192,750);
}
);
layerId = "70D15AE9-D38C-43AF-B37D-5B18830B62EE";
shapes = (
{
closed = 1;
nodes = (
(118,770,l),
(19,630,l),
(147,630,l),
(217,728,l),
(167,728,l),
(236,630,l),
(364,630,l),
(265,770,l)
);
}
);
width = 383;
},
{
anchors = (
{
name = _top;
pos = (162,560);
},
{
name = top;
pos = (162,750);
}
);
layerId = "B0101270-E9E4-4119-BDB6-6DA172BA76B6";
shapes = (
{
closed = 1;
nodes = (
(122,760,l),
(20,630,l),
(100,630,l),
(187,744,l),
(137,744,l),
(224,630,l),
(304,630,l),
(202,760,l)
);
}
);
width = 324;
}
);
unicode = 770;
}
{
color = 6;
glyphname = hungarumlautcomb;
layers = (
{
anchors = (
{
name = _top;
pos = (178,560);
},
{
name = top;
pos = (208,770);
}
);
layerId = "70D15AE9-D38C-43AF-B37D-5B18830B62EE";
shapes = (
{
closed = 1;
nodes = (
(75,770,l),
(25,630,l),
(142,630,l),
(217,770,l)
);
},
{
closed = 1;
nodes = (
(249,770,l),
(199,630,l),
(316,630,l),
(391,770,l)
);
}
);
width = 434;
},
{
anchors = (
{
name = _top;
pos = (159,560);
},
{
name = top;
pos = (189,710);
}
);
layerId = "B0101270-E9E4-4119-BDB6-6DA172BA76B6";
shapes = (
{
closed = 1;
nodes = (
(85,760,l),
(55,630,l),
(112,630,l),
(185,760,l)
);
},
{
closed = 1;
nodes = (
(223,760,l),
(193,630,l),
(250,630,l),
(323,760,l)
);
}
);
width = 378;
}
);
unicode = 779;
}
{
color = 6;
glyphname = caroncomb;
layers = (
{
anchors = (
{
name = _top;
pos = (192,560);
},
{
name = top;
pos = (192,750);
}
);
layerId = "70D15AE9-D38C-43AF-B37D-5B18830B62EE";
shapes = (
{
closed = 1;
nodes = (
(265,630,l),
(364,770,l),
(236,770,l),
(167,672,l),
(217,672,l),
(147,770,l),
(19,770,l),
(118,630,l)
);
}
);
width = 383;
},
{
anchors = (
{
name = _top;
pos = (152,560);
},
{
name = top;
pos = (152,757);
}
);
layerId = "B0101270-E9E4-4119-BDB6-6DA172BA76B6";
shapes = (
{
closed = 1;
nodes = (
(192,637,l),
(294,767,l),
(214,767,l),
(127,653,l),
(177,653,l),
(90,767,l),
(10,767,l),
(112,637,l)
);
}
);
width = 304;
},
{
anchors = (
{
name = _top;
pos = (192,560);
},
{
name = top;
pos = (192,750);
}
);
associatedMasterId = "70D15AE9-D38C-43AF-B37D-5B18830B62EE";
layerId = "DEFA9EB4-C98F-4459-90EB-8625F9DA795C";
name = "3 Sep 25 at 15:11";
shapes = (
{
closed = 1;
nodes = (
(142,750,l),
(35,750,l),
(134,610,l),
(235,610,l)
);
},
{
closed = 1;
nodes = (
(249,610,l),
(348,750,l),
(241,750,l),
(148,610,l)
);
}
);
width = 383;
}
);
unicode = 780;
}
{
color = 6;
glyphname = cedillacomb;
layers = (
{
anchors = (
{
name = _bottom;
pos = (110,0);
},
{
name = bottom;
pos = (169,-220);
}
);
layerId = "70D15AE9-D38C-43AF-B37D-5B18830B62EE";
shapes = (
{
closed = 1;
nodes = (
(83,-91,l),
(176,-91,l),
(176,40,l),
(83,40,l)
);
},
{
closed = 1;
nodes = (
(153,-91,o),
(158,-98,o),
(158,-108,cs),
(158,-118,o),
(153,-125,o),
(131,-125,cs),
(55,-125,l),
(55,-200,l),
(169,-200,ls),
(247,-200,o),
(289,-164,o),
(289,-108,cs),
(289,-52,o),
(247,-25,o),
(167,-25,c),
(131,-91,l)
);
}
);
width = 334;
},
{
anchors = (
{
name = _bottom;
pos = (87,0);
},
{
name = bottom;
pos = (144,-200);
}
);
layerId = "B0101270-E9E4-4119-BDB6-6DA172BA76B6";
shapes = (
{
closed = 1;
nodes = (
(73,-89,l),
(136,-89,l),
(136,40,l),
(73,40,l)
);
},
{
closed = 1;
nodes = (
(152,-89,o),
(178,-89,o),
(178,-117,cs),
(178,-145,o),
(152,-146,o),
(122,-146,cs),
(50,-146,l),
(50,-200,l),
(134,-200,ls),
(202,-200,o),
(238,-174,o),
(238,-117,cs),
(238,-61,o),
(202,-35,o),
(122,-35,c),
(122,-89,l)
);
}
);
width = 288;
},
{
anchors = (
{
name = _bottom;
pos = (110,0);
},
{
name = bottom;
pos = (169,-220);
}
);
associatedMasterId = "70D15AE9-D38C-43AF-B37D-5B18830B62EE";
layerId = "57B00CF8-2975-47D4-A77D-B32C05B7C5B8";
name = "3 Sep 25 at 15:18";
shapes = (
{
closed = 1;
nodes = (
(73,-114,l),
(186,-114,l),
(186,40,l),
(73,40,l)
);
},
{
closed = 1;
nodes = (
(186,-114,o),
(193,-123,o),
(193,-134,cs),
(193,-146,o),
(186,-155,o),
(167,-155,cs),
(45,-155,l),
(45,-243,l),
(169,-243,ls),
(247,-243,o),
(289,-200,o),
(289,-134,cs),
(289,-68,o),
(247,-25,o),
(167,-25,c),
(167,-114,l)
);
}
);
width = 334;
},
{
anchors = (
{
name = _bottom;
pos = (87,0);
},
{
name = bottom;
pos = (144,-243);
}
);
associatedMasterId = "B0101270-E9E4-4119-BDB6-6DA172BA76B6";
layerId = "A3107072-F310-43B1-979B-BA40FEC678EA";
name = "3 Sep 25 at 15:18";
shapes = (
{
closed = 1;
nodes = (
(68,-89,l),
(141,-89,l),
(141,40,l),
(68,40,l)
);
},
{
closed = 1;
nodes = (
(144,-89,o),
(178,-98,o),
(178,-134,cs),
(178,-170,o),
(144,-179,o),
(122,-179,c),
(50,-179,l),
(50,-233,l),
(124,-233,l),
(192,-233,o),
(238,-190,o),
(238,-134,cs),
(238,-78,o),
(192,-35,o),
(122,-35,c),
(122,-89,l)
);
}
);
width = 288;
}
);
unicode = 807;
}
{
color = 6;
glyphname = bullet;
kernRight = KO_bullet;
layers = (
{
layerId = "70D15AE9-D38C-43AF-B37D-5B18830B62EE";
shapes = (
{
closed = 1;
nodes = (
(200,228,o),
(245,275,o),
(245,330,cs),
(245,385,o),
(200,431,o),
(145,431,cs),
(90,431,o),
(45,385,o),
(45,330,cs),
(45,275,o),
(90,228,o),
(145,228,cs)
);
}
);
width = 290;
},
{
layerId = "B0101270-E9E4-4119-BDB6-6DA172BA76B6";
shapes = (
{
closed = 1;
nodes = (
(157,260,o),
(188,292,o),
(188,330,cs),
(188,368,o),
(157,399,o),
(119,399,cs),
(81,399,o),
(50,368,o),
(50,330,cs),
(50,292,o),
(81,260,o),
(119,260,cs)
);
}
);
width = 238;
}
);
unicode = 8226;
}
{
color = 3;
glyphname = perthousand;
kernLeft = KO_percent;
kernRight = KO_percent;
layers = (
{
layerId = "70D15AE9-D38C-43AF-B37D-5B18830B62EE";
shapes = (
{
closed = 1;
nodes = (
(1279,-16,o),
(1335,82,o),
(1335,204,cs),
(1335,325,o),
(1279,423,o),
(1158,423,cs),
(1036,423,o),
(980,325,o),
(980,204,cs),
(980,82,o),
(1036,-16,o),
(1158,-16,cs)
);
},
{
ref = percent;
},
{
closed = 1;
nodes = (
(1120,103,o),
(1101,142,o),
(1101,204,cs),
(1101,265,o),
(1120,304,o),
(1158,304,cs),
(1195,304,o),
(1214,265,o),
(1214,204,cs),
(1214,142,o),
(1195,103,o),
(1158,103,cs)
);
}
);
width = 1385;
},
{
layerId = "B0101270-E9E4-4119-BDB6-6DA172BA76B6";
shapes = (
{
closed = 1;
nodes = (
(1244,-16,o),
(1300,82,o),
(1300,204,cs),
(1300,325,o),
(1244,423,o),
(1123,423,cs),
(1001,423,o),
(945,325,o),
(945,204,cs),
(945,82,o),
(1001,-16,o),
(1123,-16,cs)
);
},
{
ref = percent;
},
{
closed = 1;
nodes = (
(1058,49,o),
(1020,116,o),
(1020,204,cs),
(1020,291,o),
(1058,358,o),
(1123,358,cs),
(1187,358,o),
(1225,291,o),
(1225,204,cs),
(1225,116,o),
(1187,49,o),
(1123,49,cs)
);
}
);
width = 1350;
}
);
metricLeft = percent;
metricRight = percent;
unicode = 8240;
}
{
color = 6;
glyphname = threeinferior;
layers = (
{
layerId = "70D15AE9-D38C-43AF-B37D-5B18830B62EE";
shapes = (
{
closed = 1;
nodes = (
(123,139,l),
(187,139,o),
(202,123,o),
(202,103,cs),
(202,87,o),
(190,75,o),
(168,75,cs),
(143,75,o),
(130,86,o),
(127,111,c),
(30,111,l),
(30,41,o),
(87,-8,o),
(173,-8,cs),
(260,-8,o),
(303,39,o),
(303,99,cs),
(303,139,o),
(284,179,o),
(196,183,c),
(190,168,l),
(281,173,o),
(301,209,o),
(301,255,cs),
(301,311,o),
(249,358,o),
(169,358,cs),
(94,358,o),
(30,309,o),
(30,239,c),
(127,239,l),
(133,267,o),
(152,275,o),
(171,275,cs),
(192,275,o),
(205,264,o),
(205,248,cs),
(205,230,o),
(192,212,o),
(123,212,c)
);
}
);
userData = {
RMXScaler = {
height = 50;
weight = -270;
width = 50;
};
};
width = 346;
},
{
layerId = "B0101270-E9E4-4119-BDB6-6DA172BA76B6";
shapes = (
{
closed = 1;
nodes = (
(141,149,l),
(212,149,o),
(243,137,o),
(243,100,cs),
(243,72,o),
(220,50,o),
(176,50,cs),
(129,50,o),
(104,76,o),
(101,111,c),
(35,111,l),
(35,41,o),
(99,-8,o),
(174,-8,cs),
(258,-8,o),
(308,39,o),
(308,95,cs),
(308,139,o),
(279,179,o),
(209,183,c),
(209,168,l),
(281,173,o),
(306,214,o),
(306,255,cs),
(306,311,o),
(254,358,o),
(174,358,cs),
(99,358,o),
(35,309,o),
(35,239,c),
(101,239,l),
(103,277,o),
(133,300,o),
(177,300,cs),
(219,300,o),
(240,279,o),
(240,255,cs),
(240,219,o),
(213,206,o),
(141,206,c)
);
}
);
userData = {
RMXScaler = {
height = 50;
weight = 10;
width = 50;
};
};
width = 356;
}
);
metricRight = "=O";
unicode = 8323;
userData = {
KernOnSpecialSpacing = {
L = NoKerning;
R = NoKerning;
};
RMXScaler = {
source = three;
};
};
}
{
color = 6;
glyphname = fourinferior;
layers = (
{
layerId = "70D15AE9-D38C-43AF-B37D-5B18830B62EE";
shapes = (
{
closed = 1;
nodes = (
(184,0,l),
(276,0,l),
(276,350,l),
(184,350,l)
);
},
{
closed = 1;
nodes = (
(36,71,l),
(313,71,l),
(313,155,l),
(36,155,l)
);
},
{
closed = 1;
nodes = (
(29,154,l),
(29,71,l),
(76,71,l),
(260,350,l),
(169,350,l)
);
}
);
userData = {
RMXScaler = {
height = 50;
weight = -270;
width = 50;
};
};
width = 337;
},
{
layerId = "B0101270-E9E4-4119-BDB6-6DA172BA76B6";
shapes = (
{
closed = 1;
nodes = (
(186,0,l),
(248,0,l),
(248,350,l),
(186,350,l)
);
},
{
closed = 1;
nodes = (
(36,81,l),
(300,81,l),
(300,135,l),
(36,135,l)
);
},
{
closed = 1;
nodes = (
(30,134,l),
(30,81,l),
(61,81,l),
(235,350,l),
(171,350,l)
);
}
);
userData = {
RMXScaler = {
height = 50;
weight = 10;
width = 50;
};
};
width = 329;
}
);
unicode = 8324;
userData = {
KernOnSpecialSpacing = {
L = NoKerning;
R = NoKerning;
};
RMXScaler = {
source = four;
};
};
}
{
color = 6;
glyphname = seveninferior;
layers = (
{
layerId = "70D15AE9-D38C-43AF-B37D-5B18830B62EE";
shapes = (
{
closed = 1;
nodes = (
(188,0,l),
(188,157,o),
(213,227,o),
(272,283,c),
(272,350,l),
(191,350,l),
(113,280,o),
(80,152,o),
(80,0,c)
);
},
{
closed = 1;
nodes = (
(25,259,l),
(248,259,l),
(248,350,l),
(25,350,l)
);
}
);
userData = {
RMXScaler = {
height = 50;
weight = -270;
width = 50;
};
};
width = 298;
},
{
layerId = "B0101270-E9E4-4119-BDB6-6DA172BA76B6";
shapes = (
{
closed = 1;
nodes = (
(171,0,l),
(171,157,o),
(211,249,o),
(270,305,c),
(270,350,l),
(232,350,l),
(154,280,o),
(107,152,o),
(107,0,c)
);
},
{
closed = 1;
nodes = (
(30,295,l),
(253,295,l),
(253,350,l),
(30,350,l)
);
}
);
userData = {
RMXScaler = {
height = 50;
weight = 10;
width = 50;
};
};
width = 300;
}
);
unicode = 8327;
userData = {
KernOnSpecialSpacing = {
L = NoKerning;
R = NoKerning;
};
RMXScaler = {
source = seven;
};
};
}
{
color = 6;
glyphname = sheqel;
layers = (
{
layerId = "70D15AE9-D38C-43AF-B37D-5B18830B62EE";
shapes = (
{
closed = 1;
nodes = (
(551,182,l),
(551,504,ls),
(551,635,o),
(494,700,o),
(379,700,cs),
(97,700,l),
(97,574,l),
(370,574,ls),
(397,574,o),
(406,563,o),
(406,533,cs),
(406,182,l)
);
},
{
closed = 1;
nodes = (
(212,0,l),
(212,700,l),
(67,700,l),
(67,0,l)
);
},
{
closed = 1;
nodes = (
(690,0,l),
(690,126,l),
(417,126,ls),
(390,126,o),
(381,137,o),
(381,167,cs),
(381,518,l),
(236,518,l),
(236,196,ls),
(236,65,o),
(293,0,o),
(408,0,cs)
);
},
{
closed = 1;
nodes = (
(720,0,l),
(720,700,l),
(575,700,l),
(575,0,l)
);
}
);
width = 787;
},
{
layerId = "B0101270-E9E4-4119-BDB6-6DA172BA76B6";
shapes = (
{
closed = 1;
nodes = (
(450,178,l),
(450,574,ls),
(450,665,o),
(393,700,o),
(338,700,cs),
(99,700,l),
(99,632,l),
(325,632,ls),
(358,632,o),
(375,609,o),
(375,573,cs),
(375,178,l)
);
},
{
closed = 1;
nodes = (
(147,0,l),
(147,700,l),
(72,700,l),
(72,0,l)
);
},
{
closed = 1;
nodes = (
(574,0,l),
(574,68,l),
(348,68,ls),
(315,68,o),
(298,91,o),
(298,127,cs),
(298,522,l),
(223,522,l),
(223,126,ls),
(223,35,o),
(280,0,o),
(335,0,cs)
);
},
{
closed = 1;
nodes = (
(601,0,l),
(601,700,l),
(526,700,l),
(526,0,l)
);
}
);
width = 673;
}
);
metricRight = "=H";
unicode = 8362;
}
{
color = 6;
glyphname = euro;
layers = (
{
layerId = "70D15AE9-D38C-43AF-B37D-5B18830B62EE";
shapes = (
{
closed = 1;
nodes = (
(644,-16,o),
(753,104,o),
(767,285,c),
(615,285,l),
(607,182,o),
(558,116,o),
(447,116,cs),
(310,116,o),
(252,231,o),
(252,351,cs),
(252,469,o),
(310,584,o),
(447,584,cs),
(547,584,o),
(595,531,o),
(609,441,c),
(763,441,l),
(742,609,o),
(635,716,o),
(447,716,cs),
(224,716,o),
(101,552,o),
(101,351,cs),
(101,148,o),
(224,-16,o),
(447,-16,cs)
);
},
{
closed = 1;
nodes = (
(440,213,l),
(440,313,l),
(38,313,l),
(38,213,l)
);
},
{
closed = 1;
nodes = (
(440,373,l),
(440,473,l),
(38,473,l),
(38,373,l)
);
}
);
width = 810;
},
{
layerId = "B0101270-E9E4-4119-BDB6-6DA172BA76B6";
shapes = (
{
closed = 1;
nodes = (
(645,-16,o),
(754,104,o),
(768,285,c),
(691,285,l),
(683,182,o),
(629,56,o),
(448,56,cs),
(271,56,o),
(180,191,o),
(180,351,cs),
(180,509,o),
(271,644,o),
(448,644,cs),
(618,644,o),
(671,531,o),
(685,441,c),
(764,441,l),
(743,609,o),
(636,716,o),
(448,716,cs),
(225,716,o),
(102,552,o),
(102,351,cs),
(102,148,o),
(225,-16,o),
(448,-16,cs)
);
},
{
closed = 1;
nodes = (
(418,229,l),
(418,295,l),
(43,295,l),
(43,229,l)
);
},
{
closed = 1;
nodes = (
(418,375,l),
(418,441,l),
(43,441,l),
(43,375,l)
);
}
);
width = 816;
},
{
associatedMasterId = "70D15AE9-D38C-43AF-B37D-5B18830B62EE";
layerId = "6907248B-8D0F-4560-95A8-028470C50AFB";
name = "2 Sep 25 at 14:19";
shapes = (
{
closed = 1;
nodes = (
(626,285,l),
(618,182,o),
(569,116,o),
(458,116,cs),
(321,116,o),
(263,231,o),
(263,351,cs),
(263,469,o),
(321,584,o),
(458,584,cs),
(558,584,o),
(606,531,o),
(620,441,c),
(774,441,l),
(753,609,o),
(646,716,o),
(458,716,cs),
(235,716,o),
(112,552,o),
(112,351,cs),
(112,148,o),
(235,-16,o),
(458,-16,cs),
(655,-16,o),
(764,104,o),
(778,285,c)
);
},
{
closed = 1;
nodes = (
(38,388,l),
(433,388,l),
(433,484,l),
(38,484,l)
);
},
{
closed = 1;
nodes = (
(38,224,l),
(433,224,l),
(433,320,l),
(38,320,l)
);
}
);
width = 821;
},
{
associatedMasterId = "70D15AE9-D38C-43AF-B37D-5B18830B62EE";
layerId = "144C1E84-3C0D-47A9-94FA-6819A16C4E49";
name = "2 Sep 25 at 17:28";
shapes = (
{
closed = 1;
nodes = (
(544,285,l),
(537,181,o),
(493,116,o),
(406,116,cs),
(282,116,o),
(250,231,o),
(250,351,cs),
(250,469,o),
(282,584,o),
(406,584,cs),
(485,584,o),
(527,529,o),
(539,441,c),
(684,441,l),
(665,614,o),
(566,716,o),
(406,716,cs),
(200,716,o),
(99,552,o),
(99,351,cs),
(99,148,o),
(200,-16,o),
(406,-16,cs),
(581,-16,o),
(676,106,o),
(688,285,c)
);
},
{
closed = 1;
nodes = (
(38,373,l),
(420,373,l),
(420,473,l),
(38,473,l)
);
},
{
closed = 1;
nodes = (
(38,213,l),
(420,213,l),
(420,313,l),
(38,313,l)
);
}
);
width = 731;
}
);
metricRight = "=C";
unicode = 8364;
}
{
color = 6;
glyphname = hryvnia;
layers = (
{
layerId = "70D15AE9-D38C-43AF-B37D-5B18830B62EE";
shapes = (
{
closed = 1;
nodes = (
(50,388,l),
(668,388,l),
(668,484,l),
(50,484,l)
);
},
{
closed = 1;
nodes = (
(50,224,l),
(668,224,l),
(668,320,l),
(50,320,l)
);
},
{
closed = 1;
nodes = (
(632,453,l),
(636,470,o),
(638,489,o),
(638,510,cs),
(638,622,o),
(532,716,o),
(362,716,cs),
(228,716,o),
(117,641,o),
(95,524,c),
(253,524,l),
(271,563,o),
(307,584,o),
(367,584,cs),
(445,584,o),
(487,552,o),
(487,510,cs),
(487,484,o),
(473,466,o),
(449,453,c)
);
},
{
closed = 1;
nodes = (
(85,246,l),
(82,230,o),
(80,212,o),
(80,193,cs),
(80,62,o),
(184,-12,o),
(358,-12,cs),
(502,-12,o),
(613,71,o),
(640,184,c),
(478,184,l),
(455,145,o),
(409,120,o),
(352,120,cs),
(284,120,o),
(231,142,o),
(231,193,cs),
(231,218,o),
(246,234,o),
(270,246,c)
);
}
);
width = 718;
},
{
layerId = "B0101270-E9E4-4119-BDB6-6DA172BA76B6";
shapes = (
{
closed = 1;
nodes = (
(55,403,l),
(674,403,l),
(674,469,l),
(55,469,l)
);
},
{
closed = 1;
nodes = (
(55,239,l),
(674,239,l),
(674,305,l),
(55,305,l)
);
},
{
closed = 1;
nodes = (
(634,451,l),
(640,468,o),
(643,488,o),
(643,510,cs),
(643,622,o),
(537,716,o),
(367,716,cs),
(228,716,o),
(114,633,o),
(98,509,c),
(182,509,l),
(197,596,o),
(256,644,o),
(372,644,cs),
(500,644,o),
(565,592,o),
(565,510,cs),
(565,486,o),
(558,467,o),
(545,452,c)
);
},
{
closed = 1;
nodes = (
(101,269,l),
(91,248,o),
(85,223,o),
(85,193,cs),
(85,62,o),
(189,-12,o),
(363,-12,cs),
(515,-12,o),
(629,77,o),
(648,199,c),
(564,199,l),
(545,110,o),
(462,60,o),
(357,60,cs),
(239,60,o),
(163,112,o),
(163,193,cs),
(163,230,o),
(181,254,o),
(211,270,c)
);
}
);
width = 729;
}
);
metricRight = "=S";
unicode = 8372;
}
{
color = 6;
glyphname = trademark;
kernLeft = KO_trademark;
layers = (
{
anchors = (
{
name = bottom;
pos = (336,0);
},
{
name = center;
pos = (336,350);
},
{
name = top;
pos = (336,700);
}
);
layerId = "70D15AE9-D38C-43AF-B37D-5B18830B62EE";
shapes = (
{
closed = 1;
nodes = (
(151,328,l),
(248,328,l),
(248,700,l),
(151,700,l)
);
},
{
closed = 1;
nodes = (
(45,613,l),
(354,613,l),
(354,700,l),
(45,700,l)
);
},
{
closed = 1;
nodes = (
(616,328,l),
(525,700,l),
(426,700,l),
(523,328,l)
);
},
{
closed = 1;
nodes = (
(728,700,l),
(629,700,l),
(538,328,l),
(632,328,l)
);
},
{
closed = 1;
nodes = (
(371,328,l),
(465,328,l),
(465,700,l),
(371,700,l)
);
},
{
closed = 1;
nodes = (
(689,328,l),
(784,328,l),
(784,700,l),
(689,700,l)
);
}
);
width = 834;
},
{
anchors = (
{
name = bottom;
pos = (311,0);
},
{
name = center;
pos = (311,350);
},
{
name = top;
pos = (311,700);
}
);
layerId = "B0101270-E9E4-4119-BDB6-6DA172BA76B6";
shapes = (
{
closed = 1;
nodes = (
(158,328,l),
(219,328,l),
(219,700,l),
(158,700,l)
);
},
{
closed = 1;
nodes = (
(50,644,l),
(327,644,l),
(327,700,l),
(50,700,l)
);
},
{
closed = 1;
nodes = (
(553,328,l),
(433,700,l),
(372,700,l),
(494,328,l)
);
},
{
closed = 1;
nodes = (
(693,700,l),
(631,700,l),
(512,328,l),
(570,328,l)
);
},
{
closed = 1;
nodes = (
(357,328,l),
(414,328,l),
(414,700,l),
(357,700,l)
);
},
{
closed = 1;
nodes = (
(650,328,l),
(707,328,l),
(707,700,l),
(650,700,l)
);
}
);
width = 762;
}
);
unicode = 8482;
}
{
color = 6;
glyphname = upArrow;
layers = (
{
layerId = "70D15AE9-D38C-43AF-B37D-5B18830B62EE";
shapes = (
{
closed = 1;
nodes = (
(55,453,l),
(141,367,l),
(278,504,l),
(246,517,l),
(246,0,l),
(390,0,l),
(390,517,l),
(358,504,l),
(495,367,l),
(581,453,l),
(318,716,l)
);
}
);
width = 636;
},
{
layerId = "B0101270-E9E4-4119-BDB6-6DA172BA76B6";
shapes = (
{
closed = 1;
nodes = (
(60,453,l),
(106,407,l),
(318,619,l),
(286,632,l),
(286,0,l),
(360,0,l),
(360,632,l),
(328,619,l),
(540,407,l),
(586,453,l),
(323,716,l)
);
}
);
width = 646;
}
);
unicode = 8593;
}
{
color = 6;
glyphname = southEastArrow;
layers = (
{
layerId = "70D15AE9-D38C-43AF-B37D-5B18830B62EE";
shapes = (
{
closed = 1;
nodes = (
(613,0,l),
(613,372,l),
(492,372,l),
(492,178,l),
(524,191,l),
(158,557,l),
(55,454,l),
(421,88,l),
(434,120,l),
(240,120,l),
(240,0,l)
);
}
);
width = 668;
},
{
layerId = "B0101270-E9E4-4119-BDB6-6DA172BA76B6";
shapes = (
{
closed = 1;
nodes = (
(591,0,l),
(591,372,l),
(526,372,l),
(526,73,l),
(558,86,l),
(112,532,l),
(60,480,l),
(507,33,l),
(520,65,l),
(219,65,l),
(219,0,l)
);
}
);
width = 651;
},
{
associatedMasterId = "70D15AE9-D38C-43AF-B37D-5B18830B62EE";
layerId = "E2FF2F7C-B108-4F18-B228-9DD867792C4E";
name = "1 Sep 25 at 14:41";
shapes = (
{
closed = 1;
nodes = (
(158,557,l),
(55,454,l),
(498,11,l),
(601,114,l)
);
},
{
closed = 1;
nodes = (
(241,120,l),
(240,-1,l),
(613,0,l),
(613,120,l)
);
},
{
closed = 1;
nodes = (
(613,372,l),
(492,371,l),
(492,-1,l),
(613,0,l)
);
}
);
width = 668;
}
);
unicode = 8600;
}
{
color = 6;
glyphname = radical;
kernRight = KO_radical;
layers = (
{
layerId = "70D15AE9-D38C-43AF-B37D-5B18830B62EE";
shapes = (
{
closed = 1;
nodes = (
(203,0,l),
(336,0,l),
(186,560,l),
(33,560,l)
);
},
{
closed = 1;
nodes = (
(396,700,l),
(263,0,l),
(396,0,l),
(549,700,l)
);
},
{
closed = 1;
nodes = (
(444,574,l),
(683,574,l),
(683,700,l),
(444,700,l)
);
}
);
width = 713;
},
{
layerId = "B0101270-E9E4-4119-BDB6-6DA172BA76B6";
shapes = (
{
closed = 1;
nodes = (
(208,-1,l),
(273,-1,l),
(118,559,l),
(38,559,l)
);
},
{
closed = 1;
nodes = (
(368,699,l),
(235,-1,l),
(298,-1,l),
(451,699,l)
);
},
{
closed = 1;
nodes = (
(386,631,l),
(585,631,l),
(585,699,l),
(386,699,l)
);
}
);
width = 618;
}
);
unicode = 8730;
}
{
color = 6;
glyphname = infinity;
layers = (
{
layerId = "70D15AE9-D38C-43AF-B37D-5B18830B62EE";
shapes = (
{
closed = 1;
nodes = (
(351,164,o),
(409,221,o),
(452,283,c),
(416,283,l),
(459,221,o),
(517,164,o),
(607,164,cs),
(740,164,o),
(823,246,o),
(823,369,cs),
(823,493,o),
(740,576,o),
(607,576,cs),
(517,576,o),
(459,519,o),
(416,455,c),
(452,455,l),
(409,519,o),
(351,576,o),
(261,576,cs),
(128,576,o),
(45,493,o),
(45,369,cs),
(45,246,o),
(128,164,o),
(261,164,cs)
);
},
{
closed = 1;
nodes = (
(214,292,o),
(191,326,o),
(191,369,cs),
(191,413,o),
(214,448,o),
(261,448,cs),
(318,448,o),
(355,396,o),
(372,339,c),
(373,399,l),
(355,343,o),
(319,292,o),
(261,292,cs)
);
},
{
closed = 1;
nodes = (
(549,292,o),
(513,343,o),
(495,399,c),
(496,339,l),
(513,396,o),
(550,448,o),
(607,448,cs),
(654,448,o),
(677,413,o),
(677,369,cs),
(677,326,o),
(654,292,o),
(607,292,cs)
);
}
);
width = 868;
},
{
layerId = "B0101270-E9E4-4119-BDB6-6DA172BA76B6";
shapes = (
{
closed = 1;
nodes = (
(356,164,o),
(424,241,o),
(457,313,c),
(421,313,l),
(454,241,o),
(522,164,o),
(627,164,cs),
(745,164,o),
(828,246,o),
(828,369,cs),
(828,493,o),
(745,576,o),
(625,576,cs),
(522,576,o),
(454,499,o),
(421,425,c),
(457,425,l),
(424,499,o),
(356,576,o),
(254,576,cs),
(133,576,o),
(50,493,o),
(50,369,cs),
(50,246,o),
(133,164,o),
(254,164,cs)
);
},
{
closed = 1;
nodes = (
(179,232,o),
(128,286,o),
(128,369,cs),
(128,453,o),
(179,508,o),
(256,508,cs),
(353,508,o),
(405,416,o),
(422,339,c),
(423,399,l),
(405,323,o),
(354,232,o),
(256,232,cs)
);
},
{
closed = 1;
nodes = (
(524,232,o),
(473,323,o),
(455,399,c),
(456,339,l),
(473,416,o),
(525,508,o),
(622,508,cs),
(699,508,o),
(750,453,o),
(750,369,cs),
(750,286,o),
(699,232,o),
(622,232,cs)
);
}
);
width = 878;
},
{
associatedMasterId = "B0101270-E9E4-4119-BDB6-6DA172BA76B6";
layerId = "9F208345-CCAC-4CC2-8290-6850F8D248D4";
name = "2 Sep 25 at 11:37";
shapes = (
{
closed = 1;
nodes = (
(356,164,o),
(424,241,o),
(457,313,c),
(421,313,l),
(454,241,o),
(522,164,o),
(612,164,cs),
(745,164,o),
(828,246,o),
(828,369,cs),
(828,493,o),
(745,576,o),
(612,576,cs),
(522,576,o),
(454,499,o),
(421,425,c),
(457,425,l),
(424,499,o),
(356,576,o),
(266,576,cs),
(133,576,o),
(50,493,o),
(50,369,cs),
(50,246,o),
(133,164,o),
(266,164,cs)
);
},
{
closed = 1;
nodes = (
(179,232,o),
(128,286,o),
(128,369,cs),
(128,453,o),
(179,508,o),
(266,508,cs),
(353,508,o),
(405,416,o),
(422,339,c),
(423,399,l),
(405,323,o),
(354,232,o),
(266,232,cs)
);
},
{
closed = 1;
nodes = (
(524,232,o),
(473,323,o),
(455,399,c),
(456,339,l),
(473,416,o),
(525,508,o),
(612,508,cs),
(699,508,o),
(750,453,o),
(750,369,cs),
(750,286,o),
(699,232,o),
(612,232,cs)
);
}
);
width = 878;
}
);
unicode = 8734;
}
{
color = 6;
glyphname = integral;
layers = (
{
layerId = "70D15AE9-D38C-43AF-B37D-5B18830B62EE";
shapes = (
{
closed = 1;
nodes = (
(141,158,l),
(141,59,o),
(134,10,o),
(57,10,cs),
(30,10,l),
(30,-80,l),
(57,-80,ls),
(222,-80,o),
(262,20,o),
(262,148,c),
(262,462,l),
(262,561,o),
(269,610,o),
(346,610,cs),
(373,610,l),
(373,700,l),
(346,700,ls),
(181,700,o),
(141,600,o),
(141,472,c)
);
}
);
width = 403;
},
{
layerId = "B0101270-E9E4-4119-BDB6-6DA172BA76B6";
shapes = (
{
closed = 1;
nodes = (
(169,148,ls),
(169,26,o),
(154,-23,o),
(62,-23,cs),
(35,-23,l),
(35,-80,l),
(62,-80,ls),
(227,-80,o),
(245,20,o),
(245,148,cs),
(245,472,ls),
(245,594,o),
(259,643,o),
(351,643,cs),
(378,643,l),
(378,700,l),
(351,700,ls),
(186,700,o),
(169,600,o),
(169,472,cs)
);
}
);
width = 413;
}
);
unicode = 8747;
}
{
color = 3;
glyphname = notequal;
kernLeft = KO_equal;
layers = (
{
layerId = "70D15AE9-D38C-43AF-B37D-5B18830B62EE";
shapes = (
{
closed = 1;
nodes = (
(161,129,l),
(303,129,l),
(441,611,l),
(299,611,l)
);
},
{
ref = equal;
}
);
width = 601;
},
{
layerId = "B0101270-E9E4-4119-BDB6-6DA172BA76B6";
shapes = (
{
closed = 1;
nodes = (
(196,129,l),
(268,129,l),
(406,611,l),
(334,611,l)
);
},
{
ref = equal;
}
);
width = 611;
},
{
associatedMasterId = "70D15AE9-D38C-43AF-B37D-5B18830B62EE";
layerId = "F1E44E56-7018-41A2-B033-93B51908375D";
name = "1 Sep 25 at 14:38";
shapes = (
{
closed = 1;
nodes = (
(56,409,l),
(546,409,l),
(546,531,l),
(55,531,l)
);
},
{
closed = 1;
nodes = (
(56,209,l),
(546,209,l),
(546,331,l),
(55,331,l)
);
},
{
closed = 1;
nodes = (
(161,129,l),
(303,129,l),
(441,611,l),
(299,611,l)
);
}
);
width = 601;
}
);
metricRight = "=equal";
unicode = 8800;
}
{
color = 6;
glyphname = greaterequal;
layers = (
{
layerId = "70D15AE9-D38C-43AF-B37D-5B18830B62EE";
shapes = (
{
closed = 1;
nodes = (
(56,72,l),
(615,72,l),
(615,194,l),
(56,194,l)
);
},
{
closed = 1;
nodes = (
(615,334,l),
(615,447,l),
(55,347,l),
(55,214,l)
);
},
{
closed = 1;
nodes = (
(55,491,l),
(615,341,l),
(615,457,l),
(55,627,l)
);
}
);
width = 665;
},
{
layerId = "B0101270-E9E4-4119-BDB6-6DA172BA76B6";
shapes = (
{
closed = 1;
nodes = (
(61,102,l),
(620,102,l),
(620,164,l),
(61,164,l)
);
},
{
closed = 1;
nodes = (
(620,354,l),
(620,415,l),
(60,315,l),
(60,244,l)
);
},
{
closed = 1;
nodes = (
(60,523,l),
(620,373,l),
(620,437,l),
(60,597,l)
);
}
);
width = 675;
}
);
unicode = 8805;
}
{
color = 6;
glyphname = Saltillo;
layers = (
{
layerId = "70D15AE9-D38C-43AF-B37D-5B18830B62EE";
shapes = (
{
closed = 1;
nodes = (
(85,398,l),
(210,398,l),
(230,716,l),
(65,716,l)
);
}
);
width = 295;
},
{
layerId = "B0101270-E9E4-4119-BDB6-6DA172BA76B6";
shapes = (
{
closed = 1;
nodes = (
(90,398,l),
(135,398,l),
(155,716,l),
(70,716,l)
);
}
);
width = 225;
}
);
unicode = 42891;
}
{
color = 6;
glyphname = D.ss01;
kernLeft = KO_E.ss01;
kernRight = KO_O;
layers = (
{
anchors = (
{
name = bottom;
pos = (364,0);
},
{
name = center;
pos = (194,350);
},
{
name = top;
pos = (364,700);
}
);
layerId = "70D15AE9-D38C-43AF-B37D-5B18830B62EE";
shapes = (
{
closed = 1;
nodes = (
(67,66,l),
(212,66,l),
(212,700,l),
(67,700,l)
);
},
{
closed = 1;
nodes = (
(212,0,l),
(329,0,l),
(329,126,l),
(212,126,l)
);
},
{
closed = 1;
nodes = (
(329,0,l),
(551,0,o),
(674,148,o),
(674,351,cs),
(674,552,o),
(551,700,o),
(329,700,c),
(329,574,l),
(465,574,o),
(523,469,o),
(523,351,cs),
(523,231,o),
(465,126,o),
(329,126,c)
);
},
{
closed = 1;
nodes = (
(122,574,l),
(329,574,l),
(329,700,l),
(122,700,l)
);
}
);
width = 717;
},
{
anchors = (
{
name = bottom;
pos = (344,0);
},
{
name = center;
pos = (187,350);
},
{
name = top;
pos = (344,700);
}
);
layerId = "B0101270-E9E4-4119-BDB6-6DA172BA76B6";
shapes = (
{
closed = 1;
nodes = (
(72,68,l),
(147,68,l),
(147,700,l),
(72,700,l)
);
},
{
closed = 1;
nodes = (
(147,0,l),
(284,0,l),
(284,68,l),
(147,68,l)
);
},
{
closed = 1;
nodes = (
(284,0,l),
(506,0,o),
(629,148,o),
(629,351,cs),
(629,552,o),
(506,700,o),
(284,700,c),
(284,632,l),
(465,632,o),
(551,509,o),
(551,351,cs),
(551,191,o),
(465,68,o),
(284,68,c)
);
},
{
closed = 1;
nodes = (
(147,632,l),
(284,632,l),
(284,700,l),
(147,700,l)
);
}
);
width = 677;
}
);
metricLeft = "=D";
metricRight = "=D";
}
{
color = 6;
glyphname = E.ss01;
kernLeft = KO_E.ss01;
kernRight = KO_E;
layers = (
{
anchors = (
{
name = bottom;
pos = (308,0);
},
{
name = ogonek;
pos = (534,10);
},
{
name = top;
pos = (308,700);
},
{
name = topleft;
pos = (45,700);
}
);
layerId = "70D15AE9-D38C-43AF-B37D-5B18830B62EE";
shapes = (
{
closed = 1;
nodes = (
(212,66,l),
(212,700,l),
(67,700,l),
(67,66,l)
);
},
{
closed = 1;
nodes = (
(558,0,l),
(558,126,l),
(212,126,l),
(212,0,l)
);
},
{
closed = 1;
nodes = (
(514,289,l),
(514,415,l),
(212,415,l),
(212,289,l)
);
},
{
closed = 1;
nodes = (
(554,574,l),
(554,700,l),
(212,700,l),
(212,574,l)
);
}
);
width = 615;
},
{
anchors = (
{
name = bottom;
pos = (308,0);
},
{
name = ogonek;
pos = (530,10);
},
{
name = top;
pos = (308,700);
},
{
name = topleft;
pos = (50,700);
}
);
layerId = "B0101270-E9E4-4119-BDB6-6DA172BA76B6";
shapes = (
{
closed = 1;
nodes = (
(147,68,l),
(147,700,l),
(72,700,l),
(72,68,l)
);
},
{
closed = 1;
nodes = (
(553,0,l),
(553,68,l),
(147,68,l),
(147,0,l)
);
},
{
closed = 1;
nodes = (
(509,318,l),
(509,386,l),
(96,386,l),
(96,318,l)
);
},
{
closed = 1;
nodes = (
(549,632,l),
(549,700,l),
(127,700,l),
(127,632,l)
);
}
);
width = 615;
}
);
metricLeft = "=E";
metricRight = "=E";
}
{
color = 6;
glyphname = Q.ss01;
kernLeft = KO_O;
kernRight = KO_O;
layers = (
{
anchors = (
{
name = bottom;
pos = (389,0);
},
{
name = top;
pos = (389,700);
}
);
layerId = "70D15AE9-D38C-43AF-B37D-5B18830B62EE";
shapes = (
{
closed = 1;
nodes = (
(611,-16,o),
(734,148,o),
(734,351,cs),
(734,552,o),
(611,716,o),
(389,716,cs),
(166,716,o),
(43,552,o),
(43,351,cs),
(43,148,o),
(166,-16,o),
(389,-16,cs)
);
},
{
closed = 1;
nodes = (
(460,-140,l),
(460,32,l),
(317,32,l),
(317,-140,l)
);
},
{
closed = 1;
nodes = (
(584,-200,l),
(584,-74,l),
(460,-74,l),
(460,-200,l)
);
},
{
closed = 1;
nodes = (
(252,116,o),
(194,231,o),
(194,351,cs),
(194,469,o),
(252,584,o),
(389,584,cs),
(525,584,o),
(583,469,o),
(583,351,cs),
(583,231,o),
(525,116,o),
(389,116,cs)
);
}
);
width = 777;
},
{
anchors = (
{
name = bottom;
pos = (394,0);
},
{
name = top;
pos = (394,700);
}
);
layerId = "B0101270-E9E4-4119-BDB6-6DA172BA76B6";
shapes = (
{
closed = 1;
nodes = (
(616,-16,o),
(739,148,o),
(739,351,cs),
(739,552,o),
(616,716,o),
(394,716,cs),
(171,716,o),
(48,552,o),
(48,351,cs),
(48,148,o),
(171,-16,o),
(394,-16,cs)
);
},
{
closed = 1;
nodes = (
(430,-134,l),
(430,32,l),
(357,32,l),
(357,-134,l)
);
},
{
closed = 1;
nodes = (
(589,-200,l),
(589,-134,l),
(430,-134,l),
(430,-200,l)
);
},
{
closed = 1;
nodes = (
(218,56,o),
(126,201,o),
(126,351,cs),
(126,499,o),
(218,644,o),
(394,644,cs),
(570,644,o),
(651,499,o),
(651,351,cs),
(651,201,o),
(570,56,o),
(394,56,cs)
);
}
);
width = 787;
}
);
metricLeft = "=Q";
metricRight = "=Q";
}
{
color = 6;
glyphname = a.ss01;
kernLeft = KO_a;
kernRight = KO_a;
layers = (
{
anchors = (
{
name = bottom;
pos = (301,0);
},
{
name = ogonek;
pos = (547,0);
},
{
name = top;
pos = (301,560);
}
);
layerId = "70D15AE9-D38C-43AF-B37D-5B18830B62EE";
shapes = (
{
closed = 1;
nodes = (
(316,-16,o),
(373,11,o),
(404,54,c),
(404,0,l),
(547,0,l),
(547,291,l),
(404,291,l),
(404,221,ls),
(404,130,o),
(338,114,o),
(286,114,cs),
(250,114,o),
(218,127,o),
(218,163,cs),
(218,212,o),
(272,233,o),
(404,231,c),
(404,353,l),
(257,349,o),
(69,332,o),
(69,159,cs),
(69,47,o),
(148,-16,o),
(258,-16,cs)
);
},
{
closed = 1;
nodes = (
(199,353,l),
(199,399,o),
(219,446,o),
(305,446,cs),
(380,446,o),
(400,408,o),
(404,353,c),
(546,353,l),
(534,491,o),
(452,576,o),
(305,576,cs),
(142,576,o),
(50,467,o),
(50,353,c)
);
}
);
width = 606;
},
{
anchors = (
{
name = bottom;
pos = (286,0);
},
{
name = ogonek;
pos = (512,0);
},
{
name = top;
pos = (286,560);
}
);
layerId = "B0101270-E9E4-4119-BDB6-6DA172BA76B6";
shapes = (
{
closed = 1;
nodes = (
(350,-16,o),
(404,14,o),
(439,70,c),
(439,0,l),
(512,0,l),
(512,285,l),
(439,285,l),
(439,221,ls),
(439,130,o),
(386,44,o),
(281,44,cs),
(186,44,o),
(140,86,o),
(140,163,cs),
(140,247,o),
(240,293,o),
(439,285,c),
(439,342,l),
(262,347,o),
(64,336,o),
(64,159,cs),
(64,47,o),
(152,-16,o),
(262,-16,cs)
);
},
{
closed = 1;
nodes = (
(134,353,l),
(134,439,o),
(184,508,o),
(290,508,cs),
(384,508,o),
(434,449,o),
(439,342,c),
(511,342,l),
(504,486,o),
(431,576,o),
(290,576,cs),
(137,576,o),
(55,467,o),
(55,353,c)
);
}
);
width = 576;
}
);
metricRight = "=a";
}
{
color = 6;
glyphname = ampersand.ss01;
layers = (
{
layerId = "70D15AE9-D38C-43AF-B37D-5B18830B62EE";
shapes = (
{
closed = 1;
nodes = (
(433,503,l),
(433,0,l),
(578,0,l),
(578,503,l)
);
},
{
closed = 1;
nodes = (
(365,416,ls),
(299,416,o),
(241,425,o),
(241,495,cs),
(241,565,o),
(299,574,o),
(365,574,cs),
(433,574,l),
(433,700,l),
(365,700,ls),
(213,700,o),
(90,656,o),
(90,495,cs),
(90,430,o),
(118,347,o),
(211,342,c),
(211,375,l),
(121,371,o),
(51,302,o),
(51,211,cs),
(51,50,o),
(174,0,o),
(326,0,cs),
(523,0,l),
(523,126,l),
(326,126,ls),
(260,126,o),
(202,141,o),
(202,211,cs),
(202,281,o),
(260,290,o),
(326,290,cs),
(672,290,l),
(672,416,l)
);
}
);
width = 707;
},
{
layerId = "B0101270-E9E4-4119-BDB6-6DA172BA76B6";
shapes = (
{
closed = 1;
nodes = (
(492,503,l),
(492,0,l),
(567,0,l),
(567,503,l)
);
},
{
closed = 1;
nodes = (
(349,386,ls),
(218,386,o),
(157,419,o),
(157,509,cs),
(157,597,o),
(207,634,o),
(354,634,cs),
(492,634,l),
(492,700,l),
(354,700,ls),
(202,700,o),
(79,655,o),
(79,505,cs),
(79,429,o),
(146,348,o),
(250,348,c),
(250,366,l),
(146,366,o),
(45,303,o),
(45,191,cs),
(45,40,o),
(168,0,o),
(320,0,cs),
(512,0,l),
(512,56,l),
(320,56,ls),
(186,56,o),
(123,95,o),
(123,191,cs),
(123,276,o),
(186,320,o),
(317,320,cs),
(651,320,l),
(651,386,l)
);
}
);
width = 691;
}
);
}
{
color = 6;
glyphname = brevecomb.narrow;
layers = (
{
anchors = (
{
name = _top;
pos = (180,560);
},
{
name = top;
pos = (180,750);
}
);
layerId = "70D15AE9-D38C-43AF-B37D-5B18830B62EE";
shapes = (
{
closed = 1;
nodes = (
(214,771,l),
(215,742,o),
(210,715,o),
(180,715,cs),
(150,715,o),
(146,742,o),
(146,771,c),
(45,771,l),
(47,693,o),
(90,630,o),
(180,630,cs),
(270,630,o),
(313,693,o),
(315,771,c)
);
}
);
width = 360;
},
{
anchors = (
{
name = _top;
pos = (138,560);
},
{
name = top;
pos = (138,750);
}
);
guides = (
{
pos = (23,754);
},
{
pos = (1,636);
}
);
layerId = "B0101270-E9E4-4119-BDB6-6DA172BA76B6";
shapes = (
{
closed = 1;
nodes = (
(173,754,l),
(173,716,o),
(165,694,o),
(138,694,cs),
(111,694,o),
(103,716,o),
(103,754,c),
(40,754,l),
(40,683,o),
(75,636,o),
(138,636,cs),
(201,636,o),
(236,683,o),
(236,754,c)
);
}
);
width = 276;
}
);
}
{
color = 6;
glyphname = caroncomb.alt;
layers = (
{
anchors = (
{
name = _topright;
pos = (25,750);
}
);
layerId = "70D15AE9-D38C-43AF-B37D-5B18830B62EE";
shapes = (
{
closed = 1;
nodes = (
(151,519,o),
(195,551,o),
(195,615,cs),
(195,750,l),
(56,750,l),
(56,615,l),
(127,615,l),
(127,590,o),
(118,575,o),
(91,575,c),
(91,519,l)
);
}
);
width = 199;
},
{
anchors = (
{
name = _topright;
pos = (23,750);
}
);
layerId = "B0101270-E9E4-4119-BDB6-6DA172BA76B6";
shapes = (
{
closed = 1;
nodes = (
(109,586,o),
(138,610,o),
(138,657,cs),
(138,750,l),
(43,750,l),
(43,657,l),
(92,657,l),
(92,638,o),
(85,627,o),
(65,627,c),
(65,586,l)
);
}
);
width = 181;
},
{
anchors = (
{
name = _topright;
pos = (30,750);
}
);
associatedMasterId = "B0101270-E9E4-4119-BDB6-6DA172BA76B6";
layerId = "D0617743-3BA4-43F1-AB61-FF8D9A6AEBD7";
name = "1 Sep 25 at 15:07";
shapes = (
{
closed = 1;
nodes = (
(50,679,l),
(88,679,l),
(88,664,o),
(82,656,o),
(67,656,c),
(67,625,l),
(101,625,o),
(123,643,o),
(123,679,cs),
(123,750,l),
(50,750,l)
);
}
);
visible = 1;
width = 173;
}
);
}
{
color = 6;
glyphname = caroncomb.narrow;
layers = (
{
anchors = (
{
name = _top;
pos = (192,560);
},
{
name = top;
pos = (192,750);
}
);
background = {
shapes = (
{
closed = 1;
nodes = (
(152,750,l),
(55,750,l),
(134,610,l),
(225,610,l)
);
},
{
closed = 1;
nodes = (
(249,610,l),
(328,750,l),
(231,750,l),
(158,610,l)
);
}
);
};
layerId = "70D15AE9-D38C-43AF-B37D-5B18830B62EE";
shapes = (
{
closed = 1;
nodes = (
(255,630,l),
(344,770,l),
(216,770,l),
(167,638,l),
(217,638,l),
(167,770,l),
(39,770,l),
(128,630,l)
);
}
);
width = 383;
},
{
anchors = (
{
name = _top;
pos = (137,560);
},
{
name = top;
pos = (137,750);
}
);
layerId = "B0101270-E9E4-4119-BDB6-6DA172BA76B6";
shapes = (
{
closed = 1;
nodes = (
(172,630,l),
(229,760,l),
(169,760,l),
(120,640,l),
(154,640,l),
(105,760,l),
(45,760,l),
(102,630,l)
);
}
);
width = 274;
}
);
}
{
color = 6;
glyphname = circumflexcomb.narrow;
layers = (
{
anchors = (
{
name = _top;
pos = (192,560);
},
{
name = top;
pos = (192,750);
}
);
layerId = "70D15AE9-D38C-43AF-B37D-5B18830B62EE";
shapes = (
{
closed = 1;
nodes = (
(134,770,l),
(65,630,l),
(162,630,l),
(225,770,l)
);
},
{
closed = 1;
nodes = (
(221,630,l),
(318,630,l),
(249,770,l),
(158,770,l)
);
}
);
width = 383;
},
{
anchors = (
{
name = _top;
pos = (152,560);
},
{
name = top;
pos = (152,750);
}
);
layerId = "B0101270-E9E4-4119-BDB6-6DA172BA76B6";
shapes = (
{
closed = 1;
nodes = (
(117,760,l),
(60,630,l),
(120,630,l),
(173,760,l)
);
},
{
closed = 1;
nodes = (
(184,630,l),
(244,630,l),
(187,760,l),
(131,760,l)
);
}
);
width = 304;
}
);
}
{
color = 6;
glyphname = e.ss01;
kernLeft = KO_e.ss01;
kernRight = KO_e;
layers = (
{
anchors = (
{
name = bottom;
pos = (313,0);
},
{
name = ogonek;
pos = (426,0);
},
{
name = top;
pos = (313,560);
}
);
layerId = "70D15AE9-D38C-43AF-B37D-5B18830B62EE";
shapes = (
{
closed = 1;
nodes = (
(612,451,o),
(478,576,o),
(326,576,cs),
(177,576,o),
(50,479,o),
(40,298,c),
(191,298,l),
(187,398,o),
(250,448,o),
(326,448,cs),
(405,448,o),
(439,393,o),
(439,340,c),
(581,232,l)
);
},
{
closed = 1;
nodes = (
(462,-16,o),
(559,63,o),
(583,178,c),
(432,178,l),
(417,140,o),
(380,112,o),
(326,112,cs),
(241,112,o),
(202,162,o),
(191,232,c),
(43,232,l),
(62,84,o),
(169,-16,o),
(326,-16,cs)
);
},
{
closed = 1;
nodes = (
(581,232,l),
(581,348,l),
(191,348,l),
(191,232,l)
);
}
);
width = 625;
},
{
anchors = (
{
name = bottom;
pos = (316,0);
},
{
name = ogonek;
pos = (429,0);
},
{
name = top;
pos = (316,560);
}
);
layerId = "B0101270-E9E4-4119-BDB6-6DA172BA76B6";
shapes = (
{
closed = 1;
nodes = (
(600,458,o),
(482,576,o),
(330,576,cs),
(171,576,o),
(63,473,o),
(46,321,c),
(122,321,l),
(136,432,o),
(211,508,o),
(330,508,cs),
(449,508,o),
(519,415,o),
(519,279,c),
(586,255,l)
);
},
{
closed = 1;
nodes = (
(466,-16,o),
(555,62,o),
(584,177,c),
(507,177,l),
(485,107,o),
(432,52,o),
(330,52,cs),
(205,52,o),
(131,135,o),
(122,255,c),
(45,255,l),
(55,95,o),
(165,-16,o),
(330,-16,cs)
);
},
{
closed = 1;
nodes = (
(586,255,l),
(571,321,l),
(122,321,l),
(122,255,l)
);
}
);
width = 632;
}
);
metricRight = "=e";
}
{
color = 6;
glyphname = j.ss01;
kernLeft = KO_j.ss01;
kernRight = KO_i;
layers = (
{
layerId = "70D15AE9-D38C-43AF-B37D-5B18830B62EE";
shapes = (
{
closed = 1;
nodes = (
(210,-200,l),
(210,560,l),
(67,560,l),
(67,-78,l),
(-57,-78,l),
(-57,-200,l)
);
},
{
closed = 1;
nodes = (
(215,642,l),
(180,795,l),
(27,760,l),
(62,607,l)
);
}
);
width = 278;
},
{
layerId = "B0101270-E9E4-4119-BDB6-6DA172BA76B6";
shapes = (
{
closed = 1;
nodes = (
(195,-200,l),
(195,560,l),
(122,560,l),
(122,-138,l),
(-32,-138,l),
(-32,-200,l)
);
},
{
closed = 1;
nodes = (
(203,677,l),
(184,768,l),
(97,750,l),
(116,659,l)
);
}
);
width = 271;
}
);
metricLeft = "=j";
metricRight = "=j";
}
{
color = 6;
glyphname = macroncomb.narrow;
layers = (
{
anchors = (
{
name = _top;
pos = (198,560);
},
{
name = top;
pos = (198,750);
}
);
layerId = "70D15AE9-D38C-43AF-B37D-5B18830B62EE";
shapes = (
{
closed = 1;
nodes = (
(86,644,l),
(311,644,l),
(311,756,l),
(86,756,l)
);
}
);
width = 396;
},
{
anchors = (
{
name = _top;
pos = (194,560);
},
{
name = top;
pos = (194,750);
}
);
layerId = "B0101270-E9E4-4119-BDB6-6DA172BA76B6";
shapes = (
{
closed = 1;
nodes = (
(96,667,l),
(291,667,l),
(291,729,l),
(96,729,l)
);
}
);
width = 387;
}
);
}
{
color = 6;
glyphname = one.dnom;
layers = (
{
layerId = "70D15AE9-D38C-43AF-B37D-5B18830B62EE";
shapes = (
{
closed = 1;
nodes = (
(109,0,l),
(216,0,l),
(216,350,l),
(109,350,l)
);
},
{
closed = 1;
nodes = (
(25,259,l),
(122,259,l),
(122,350,l),
(25,350,l)
);
},
{
closed = 1;
nodes = (
(25,0,l),
(122,0,l),
(122,85,l),
(25,85,l)
);
},
{
closed = 1;
nodes = (
(202,0,l),
(300,0,l),
(300,85,l),
(202,85,l)
);
}
);
userData = {
RMXScaler = {
height = 50;
weight = -270;
width = 50;
};
};
width = 325;
},
{
layerId = "B0101270-E9E4-4119-BDB6-6DA172BA76B6";
shapes = (
{
closed = 1;
nodes = (
(114,0,l),
(177,0,l),
(177,350,l),
(114,350,l)
);
},
{
closed = 1;
nodes = (
(30,295,l),
(127,295,l),
(127,350,l),
(30,350,l)
);
},
{
closed = 1;
nodes = (
(30,0,l),
(127,0,l),
(127,56,l),
(30,56,l)
);
},
{
closed = 1;
nodes = (
(163,0,l),
(261,0,l),
(261,56,l),
(163,56,l)
);
}
);
userData = {
RMXScaler = {
height = 50;
weight = 10;
width = 50;
};
};
width = 291;
}
);
userData = {
KernOnSpecialSpacing = {
L = NoKerning;
R = NoKerning;
};
RMXScaler = {
source = one;
};
};
}
{
color = 6;
glyphname = one.ss01;
kernLeft = KO_one.ss01;
kernRight = KO_one.ss01;
layers = (
{
layerId = "70D15AE9-D38C-43AF-B37D-5B18830B62EE";
shapes = (
{
closed = 1;
nodes = (
(203,0,l),
(348,0,l),
(348,634,l),
(203,634,l)
);
},
{
closed = 1;
nodes = (
(35,574,l),
(203,574,l),
(203,700,l),
(35,700,l)
);
},
{
closed = 1;
nodes = (
(35,0,l),
(203,0,l),
(203,126,l),
(35,126,l)
);
},
{
closed = 1;
nodes = (
(348,0,l),
(516,0,l),
(516,126,l),
(348,126,l)
);
}
);
width = 551;
},
{
layerId = "B0101270-E9E4-4119-BDB6-6DA172BA76B6";
shapes = (
{
closed = 1;
nodes = (
(208,0,l),
(283,0,l),
(283,634,l),
(208,634,l)
);
},
{
closed = 1;
nodes = (
(40,634,l),
(208,634,l),
(208,700,l),
(40,700,l)
);
},
{
closed = 1;
nodes = (
(40,0,l),
(235,0,l),
(235,76,l),
(40,76,l)
);
},
{
closed = 1;
nodes = (
(256,0,l),
(451,0,l),
(451,76,l),
(256,76,l)
);
}
);
width = 491;
}
);
metricLeft = "=one";
metricRight = "=one";
}
{
color = 6;
glyphname = s_t_a_c_k_y.liga;
kernLeft = KO_s_t_a_c_k_y.liga;
kernRight = KO_s_t_a_c_k_y.liga;
layers = (
{
layerId = "70D15AE9-D38C-43AF-B37D-5B18830B62EE";
shapes = (
{
attr = {
fillColor = (29,26,27,255);
};
closed = 1;
nodes = (
(696,0,ls),
(757,0,o),
(806,49,o),
(806,110,cs),
(806,218,ls),
(806,225,o),
(812,231,o),
(819,231,cs),
(856,231,l),
(856,469,l),
(819,469,ls),
(812,469,o),
(806,475,o),
(806,482,cs),
(806,589,ls),
(806,650,o),
(757,700,o),
(696,700,cs),
(530,700,l),
(530,566,l),
(626,566,ls),
(647,566,o),
(663,550,o),
(663,529,cs),
(663,432,ls),
(663,397,o),
(683,367,o),
(713,353,c),
(713,347,l),
(683,333,o),
(663,302,o),
(663,268,cs),
(663,170,ls),
(663,150,o),
(647,134,o),
(626,134,cs),
(530,134,l),
(530,0,l)
);
},
{
attr = {
fillColor = (29,26,27,255);
};
closed = 1;
nodes = (
(371,0,l),
(371,134,l),
(275,134,ls),
(254,134,o),
(238,150,o),
(238,170,cs),
(238,268,ls),
(238,302,o),
(218,333,o),
(188,347,c),
(188,353,l),
(218,367,o),
(238,397,o),
(238,432,cs),
(238,529,ls),
(238,550,o),
(254,566,o),
(275,566,cs),
(371,566,l),
(371,700,l),
(205,700,ls),
(144,700,o),
(95,650,o),
(95,589,cs),
(95,482,ls),
(95,475,o),
(89,469,o),
(82,469,cs),
(45,469,l),
(45,231,l),
(82,231,ls),
(89,231,o),
(95,225,o),
(95,218,cs),
(95,110,ls),
(95,49,o),
(144,0,o),
(205,0,cs)
);
},
{
attr = {
fillColor = (29,26,27,255);
};
closed = 1;
nodes = (
(412,332,l),
(412,455,l),
(298,455,l),
(298,332,l)
);
},
{
attr = {
fillColor = (29,26,27,255);
};
closed = 1;
nodes = (
(603,332,l),
(603,455,l),
(489,455,l),
(489,332,l)
);
}
);
width = 901;
},
{
layerId = "B0101270-E9E4-4119-BDB6-6DA172BA76B6";
shapes = (
{
attr = {
fillColor = (29,26,27,255);
};
closed = 1;
nodes = (
(605,0,ls),
(666,0,o),
(715,49,o),
(715,110,cs),
(715,248,ls),
(715,255,o),
(721,261,o),
(728,261,cs),
(765,261,l),
(765,439,l),
(728,439,ls),
(721,439,o),
(715,445,o),
(715,452,cs),
(715,589,ls),
(715,650,o),
(666,700,o),
(605,700,cs),
(479,700,l),
(479,626,l),
(605,626,ls),
(626,626,o),
(642,610,o),
(642,589,cs),
(642,452,ls),
(642,417,o),
(662,387,o),
(692,373,c),
(692,327,l),
(662,313,o),
(642,282,o),
(642,248,cs),
(642,110,ls),
(642,90,o),
(626,74,o),
(605,74,cs),
(479,74,l),
(479,0,l)
);
},
{
attr = {
fillColor = (29,26,27,255);
};
closed = 1;
nodes = (
(336,0,l),
(336,74,l),
(210,74,ls),
(189,74,o),
(173,90,o),
(173,110,cs),
(173,248,ls),
(173,282,o),
(153,313,o),
(123,327,c),
(123,373,l),
(153,387,o),
(173,417,o),
(173,452,cs),
(173,589,ls),
(173,610,o),
(189,626,o),
(210,626,cs),
(336,626,l),
(336,700,l),
(210,700,ls),
(149,700,o),
(100,650,o),
(100,589,cs),
(100,452,ls),
(100,445,o),
(94,439,o),
(87,439,cs),
(50,439,l),
(50,261,l),
(87,261,ls),
(94,261,o),
(100,255,o),
(100,248,cs),
(100,110,ls),
(100,49,o),
(149,0,o),
(210,0,cs)
);
},
{
attr = {
fillColor = (29,26,27,255);
};
closed = 1;
nodes = (
(336,369,l),
(336,441,l),
(265,441,l),
(265,369,l)
);
},
{
attr = {
fillColor = (29,26,27,255);
};
closed = 1;
nodes = (
(550,369,l),
(550,441,l),
(479,441,l),
(479,369,l)
);
}
);
width = 815;
}
);
}
{
color = 6;
glyphname = seven.tf;
layers = (
{
layerId = "70D15AE9-D38C-43AF-B37D-5B18830B62EE";
shapes = (
{
closed = 1;
nodes = (
(396,0,l),
(396,314,o),
(490,489,o),
(608,601,c),
(608,700,l),
(504,700,l),
(349,560,o),
(244,303,o),
(244,0,c)
);
},
{
closed = 1;
nodes = (
(53,574,l),
(570,574,l),
(570,700,l),
(53,700,l)
);
}
);
width = 660;
},
{
layerId = "B0101270-E9E4-4119-BDB6-6DA172BA76B6";
shapes = (
{
closed = 1;
nodes = (
(339,0,l),
(339,314,o),
(463,519,o),
(581,631,c),
(581,700,l),
(555,700,l),
(400,560,o),
(262,303,o),
(262,0,c)
);
},
{
closed = 1;
nodes = (
(56,634,l),
(563,634,l),
(563,700,l),
(56,700,l)
);
}
);
width = 660;
}
);
}
{
color = 6;
glyphname = six.dnom;
layers = (
{
layerId = "70D15AE9-D38C-43AF-B37D-5B18830B62EE";
shapes = (
{
closed = 1;
nodes = (
(316,251,l),
(304,316,o),
(261,358,o),
(188,358,cs),
(98,358,o),
(43,288,o),
(43,165,cs),
(43,34,o),
(109,-8,o),
(186,-8,cs),
(273,-8,o),
(318,45,o),
(318,117,cs),
(318,185,o),
(275,235,o),
(194,235,cs),
(158,235,o),
(128,222,o),
(107,197,c),
(138,197,l),
(134,249,o),
(159,277,o),
(185,277,cs),
(205,277,o),
(213,265,o),
(215,251,c)
);
},
{
closed = 1;
nodes = (
(149,137,o),
(163,151,o),
(186,151,cs),
(209,151,o),
(223,137,o),
(223,114,cs),
(223,92,o),
(209,77,o),
(186,77,cs),
(163,77,o),
(149,92,o),
(149,115,cs)
);
}
);
userData = {
RMXScaler = {
height = 50;
weight = -270;
width = 50;
};
};
width = 361;
},
{
layerId = "B0101270-E9E4-4119-BDB6-6DA172BA76B6";
shapes = (
{
closed = 1;
nodes = (
(313,251,l),
(301,315,o),
(260,358,o),
(189,358,cs),
(97,358,o),
(48,288,o),
(48,165,cs),
(48,34,o),
(112,-8,o),
(187,-8,cs),
(271,-8,o),
(321,45,o),
(321,113,cs),
(321,182,o),
(271,235,o),
(190,235,cs),
(142,235,o),
(106,210,o),
(92,182,c),
(109,180,l),
(111,268,o),
(147,300,o),
(186,300,cs),
(229,300,o),
(241,273,o),
(245,251,c)
);
},
{
closed = 1;
nodes = (
(119,153,o),
(145,178,o),
(188,178,cs),
(231,178,o),
(257,153,o),
(257,115,cs),
(257,78,o),
(231,50,o),
(187,50,cs),
(145,50,o),
(119,78,o),
(119,116,cs)
);
}
);
userData = {
RMXScaler = {
height = 50;
weight = 10;
width = 50;
};
};
width = 369;
}
);
metricRight = "=O";
userData = {
KernOnSpecialSpacing = {
L = NoKerning;
R = NoKerning;
};
RMXScaler = {
source = six;
};
};
}
{
color = 6;
glyphname = six.tf;
layers = (
{
layerId = "70D15AE9-D38C-43AF-B37D-5B18830B62EE";
shapes = (
{
closed = 1;
nodes = (
(587,502,l),
(563,630,o),
(480,716,o),
(339,716,cs),
(156,716,o),
(57,577,o),
(57,331,cs),
(57,67,o),
(185,-16,o),
(335,-16,cs),
(505,-16,o),
(604,90,o),
(604,227,cs),
(604,364,o),
(505,470,o),
(341,470,cs),
(257,470,o),
(190,434,o),
(159,380,c),
(197,373,l),
(201,528,o),
(270,584,o),
(334,584,cs),
(403,584,o),
(423,549,o),
(432,502,c)
);
},
{
closed = 1;
nodes = (
(219,300,o),
(265,340,o),
(336,340,cs),
(407,340,o),
(453,300,o),
(453,230,cs),
(453,164,o),
(407,116,o),
(335,116,cs),
(265,116,o),
(219,164,o),
(219,232,cs)
);
}
);
width = 660;
},
{
layerId = "B0101270-E9E4-4119-BDB6-6DA172BA76B6";
shapes = (
{
closed = 1;
nodes = (
(587,502,l),
(563,630,o),
(480,716,o),
(339,716,cs),
(156,716,o),
(57,577,o),
(57,331,cs),
(57,67,o),
(185,-16,o),
(335,-16,cs),
(505,-16,o),
(604,90,o),
(604,227,cs),
(604,364,o),
(505,470,o),
(341,470,cs),
(221,470,o),
(131,390,o),
(107,320,c),
(133,322,l),
(133,549,o),
(211,644,o),
(334,644,cs),
(456,644,o),
(493,549,o),
(502,502,c)
);
},
{
closed = 1;
nodes = (
(149,328,o),
(213,400,o),
(337,400,cs),
(461,400,o),
(526,328,o),
(526,230,cs),
(526,132,o),
(461,56,o),
(336,56,cs),
(213,56,o),
(149,132,o),
(149,232,cs)
);
}
);
width = 660;
}
);
}
{
color = 6;
glyphname = t.ss01;
kernLeft = KO_t.ss01;
kernRight = KO_t;
layers = (
{
anchors = (
{
name = bottom;
pos = (199,0);
},
{
name = center;
pos = (199,280);
},
{
name = top;
pos = (199,700);
},
{
name = topright;
pos = (267,778);
}
);
layerId = "70D15AE9-D38C-43AF-B37D-5B18830B62EE";
shapes = (
{
closed = 1;
nodes = (
(367,0,l),
(367,122,l),
(243,122,l),
(243,700,l),
(100,700,l),
(100,0,l)
);
},
{
closed = 1;
nodes = (
(351,438,l),
(351,560,l),
(36,560,l),
(36,438,l)
);
}
);
width = 417;
},
{
anchors = (
{
name = bottom;
pos = (231,0);
},
{
name = center;
pos = (194,280);
},
{
name = top;
pos = (194,700);
},
{
name = topright;
pos = (263,750);
}
);
layerId = "B0101270-E9E4-4119-BDB6-6DA172BA76B6";
shapes = (
{
closed = 1;
nodes = (
(352,0,l),
(352,62,l),
(218,62,l),
(218,700,l),
(145,700,l),
(145,0,l)
);
},
{
closed = 1;
nodes = (
(336,498,l),
(336,560,l),
(41,560,l),
(41,498,l)
);
}
);
width = 402;
}
);
metricLeft = "=t";
metricRight = "=t";
}
{
color = 6;
glyphname = three.tf;
layers = (
{
layerId = "70D15AE9-D38C-43AF-B37D-5B18830B62EE";
shapes = (
{
closed = 1;
nodes = (
(270,290,l),
(406,290,o),
(453,265,o),
(453,200,cs),
(453,152,o),
(418,116,o),
(340,116,cs),
(261,116,o),
(215,156,o),
(209,222,c),
(57,222,l),
(57,81,o),
(185,-16,o),
(335,-16,cs),
(505,-16,o),
(604,78,o),
(604,190,cs),
(604,279,o),
(551,359,o),
(411,367,c),
(410,336,l),
(546,345,o),
(599,421,o),
(599,510,cs),
(599,622,o),
(496,716,o),
(336,716,cs),
(186,716,o),
(57,619,o),
(57,478,c),
(209,478,l),
(215,544,o),
(262,584,o),
(341,584,cs),
(416,584,o),
(448,551,o),
(448,510,cs),
(448,445,o),
(406,420,o),
(270,420,c)
);
}
);
width = 660;
},
{
layerId = "B0101270-E9E4-4119-BDB6-6DA172BA76B6";
shapes = (
{
closed = 1;
nodes = (
(266,320,l),
(432,320,o),
(519,295,o),
(519,200,cs),
(519,122,o),
(454,56,o),
(336,56,cs),
(217,56,o),
(141,126,o),
(135,222,c),
(53,222,l),
(53,81,o),
(181,-16,o),
(331,-16,cs),
(501,-16,o),
(600,78,o),
(600,190,cs),
(600,279,o),
(527,359,o),
(387,367,c),
(386,336,l),
(522,345,o),
(595,421,o),
(595,510,cs),
(595,622,o),
(492,716,o),
(332,716,cs),
(182,716,o),
(53,619,o),
(53,478,c),
(135,478,l),
(131,574,o),
(218,644,o),
(337,644,cs),
(452,644,o),
(514,581,o),
(514,510,cs),
(514,415,o),
(432,390,o),
(266,390,c)
);
}
);
width = 660;
}
);
}
{
color = 6;
glyphname = y.ss01;
kernLeft = KO_v;
kernRight = KO_v;
layers = (
{
anchors = (
{
name = bottom;
pos = (300,0);
},
{
name = top;
pos = (300,560);
}
);
layerId = "70D15AE9-D38C-43AF-B37D-5B18830B62EE";
shapes = (
{
closed = 1;
nodes = (
(396,0,l),
(566,560,l),
(413,560,l),
(263,0,l)
);
},
{
closed = 1;
nodes = (
(331,-200,l),
(411,48,l),
(270,48,l),
(226,-78,l),
(102,-78,l),
(102,-200,l)
);
},
{
closed = 1;
nodes = (
(336,0,l),
(186,560,l),
(33,560,l),
(203,0,l)
);
}
);
width = 599;
},
{
anchors = (
{
name = bottom;
pos = (282,0);
},
{
name = top;
pos = (282,560);
}
);
layerId = "B0101270-E9E4-4119-BDB6-6DA172BA76B6";
shapes = (
{
closed = 1;
nodes = (
(336,0,l),
(526,560,l),
(446,560,l),
(263,0,l)
);
},
{
closed = 1;
nodes = (
(272,-200,l),
(352,48,l),
(281,48,l),
(221,-138,l),
(73,-138,l),
(73,-200,l)
);
},
{
closed = 1;
nodes = (
(301,0,l),
(118,560,l),
(38,560,l),
(228,0,l)
);
}
);
width = 564;
}
);
metricLeft = "=y";
metricRight = "=y";
}
